<svg id="Laag_1" data-name="Laag 1" xmlns="http://www.w3.org/2000/svg" viewBox="0 0 431.08 444.31"><path d="M-341.67,82.37c-3.56-1.37-7.09-2.71-10.6-4.1-7.18-2.85-14.37-5.7-20.94-9.86a20.16,20.16,0,0,1-6-5.26,9.71,9.71,0,0,1-.94-1.66,3,3,0,0,1,.63-3.82,17.13,17.13,0,0,1,1.93-1.79c5.32-3.68,8.74-8.84,11.14-14.68,1.48-3.63,2.51-7.44,3.78-11.28a13.36,13.36,0,0,1,4.93,3.14,72.16,72.16,0,0,1,6.94,7.27c4.53,5.81,10.07,10.46,16,14.76,2.51,1.83,5.08,3.59,7.68,5.31a4.34,4.34,0,0,0,2.09.61c1.88.09,3.76,0,5.86,0l-1.34,3.65,14,8.1V61h1.4c12.88,0,25.76-.07,38.64,0,6.31,0,12.62.41,18.73,2.28a36.64,36.64,0,0,1,12.25,6.4,1.45,1.45,0,0,0,1.2.26q11.67-5.94,23.31-12c.09-.05.16-.15.24-.55-3.51-.07-7-.22-10.55-.19-2.26,0-4.53.35-6.8.46a3,3,0,0,1-1.32-.47c-5.45-2.64-10.8-5.52-16.36-7.88a45.18,45.18,0,0,0-18.91-4,12.62,12.62,0,0,0-3.05.5,4.3,4.3,0,0,0-3.31,4.16c-1.61.22-2.36,0-3.94-1.27-.77.77-1.52,1.58-2.32,2.33-1.42,1.33-2.91,1.67-4.11,1-1.59-.92-2.14-2.4-1.61-4.43.82-3.17,2.94-5.52,5-7.89,3-3.4,6.9-4.54,11.23-4.71,7.1-.3,13.93,1.31,20.8,2.73,5.06,1,10.13,2.1,15.22,2.94a24.44,24.44,0,0,0,9.38-.78c6.08-1.39,12.13-2.92,18.24-4.23,3.14-.68,6.36-1,9.36-1.48-.82-2.75-1.82-5.53-2.45-8.39a16.58,16.58,0,0,1,.94-10.9c2.18-4.62,5.14-6.06,10.11-5A40,40,0,0,1-173,15.4,79.23,79.23,0,0,1-153.8,31.48c.92,1.09,1.68,2.3,2.62,3.61a21.86,21.86,0,0,0,1.58-2.84c1.28-3.42,3.87-5.47,7-7a30.49,30.49,0,0,1,16.31-3.29c4.47.36,8.15,2.15,10.51,6.28,2.63,4.58,5.08,9.21,6.09,14.45a15,15,0,0,1-.76,9.14c-1,2.38-1.91,4.82-3,7.18A6.42,6.42,0,0,1-115,61.23c-1.95,1.66-4,3.18-6.21,4.91a41.39,41.39,0,0,0,3.57,5.28,66.77,66.77,0,0,1,13.22,20.11,22,22,0,0,1,1.38,5.53c.49,4.08-1.9,6.84-6,7.39s-8-.35-11.75-1.62c-3.13-1-6.18-2.34-9.39-3.58-.19.35-.46.83-.73,1.3a85.24,85.24,0,0,1-9.52,13.2c-7.48,8.79-12.17,19-15.34,30-1.23,4.24-2.1,8.57-3.13,12.86a2.46,2.46,0,0,0,0,.47c12,2.14,31.16-2.06,36.43-26.65l14.14,3.56c-3.06,11.73-8.5,21.77-18.77,28.61s-21.7,7.93-33.65,6.72c-.18,1.81-.33,3.51-.51,5.21-.41,3.76-1.08,7.52-1.17,11.29-.12,5-5,10.72-10.45,12.07a5.87,5.87,0,0,1-2.13.13,2.45,2.45,0,0,1-2.07-3.66,20.36,20.36,0,0,1,2.41-3c1.07-1.28,2.17-2.54,3.21-3.84a3.16,3.16,0,0,0,.36-1.06,6.77,6.77,0,0,0-1.31-.32,21.29,21.29,0,0,1-3.2-.05c-2.72-.52-3.5-2.47-1.92-4.75a18.38,18.38,0,0,1,2.55-3,9.48,9.48,0,0,0,3.34-6.75c.07-1.25.23-2.5.24-3.76a1.24,1.24,0,0,0-.69-.89c-13.61-4.81-21.68-14.85-26.43-28-.58-1.61-1.09-3.25-1.67-5a8.08,8.08,0,0,0-1.55.43c-3.24,1.6-6.57,3.05-9.67,4.91-5,3-9.83,6.24-14.71,9.42a4.53,4.53,0,0,0-1.35,1.3c-6.4,9.77-15.57,15.11-27,16.92-1.86.29-3.73.46-5.59.73a6,6,0,0,0-1.57.52c-5.13,2.37-10.27,4.73-15.38,7.17a22.91,22.91,0,0,1-8.94,1.86c-10.77.52-21.55.89-32.32,1.34-6.66.27-13.34.45-20,.9a146.3,146.3,0,0,0-15.79,1.73,20.18,20.18,0,0,0-7.36,3.27c-8.08,5.41-17.08,8.9-25.94,12.69-2.41,1-4.89,1.89-7.32,2.89-4.38,1.82-9,2.48-13.64,3.38a53.65,53.65,0,0,0-12.79,3.7c-5.1,2.39-10.13,1.14-14-3.09s-6.13-9.38-8.05-14.69c-.82-2.28-1.51-4.6-2.26-6.91-.37-1.15-.09-2,1.29-2.74a29.71,29.71,0,0,1,5.15-2.16c5.72-1.71,11.64-2.2,17.57-2.68,3.64-.29,7.26-.88,10.86-1.53,11.29-2,22.13-5.77,33.08-9.09a2.36,2.36,0,0,0,.35-.24Q-397,112.58-417,61h12.33c3.07,0,3.07,0,4.09,2.85q13.89,38.85,27.75,77.7c1.54,4.33,2.81,8.75,4.2,13.12.09.29.2.57.3.86C-360.19,130.9-350.41,106.91-341.67,82.37Zm35.07,34.29c-3.79-1.38-7.5-2.59-11.09-4.09a65.94,65.94,0,0,1-7.06-3.71,1.6,1.6,0,0,1-.9-2,44,44,0,0,1,7.72-14.47c1.92-2.31,1.85-2.92-1-4a7.35,7.35,0,0,0-.91-.28c-2.64-.57-5.29-1.07-7.91-1.73-1-.26-1.35,0-1.72.91q-11.85,30.4-23.78,60.78l-4.13,10.55c.89.26,1.7.45,2.47.75a1.19,1.19,0,0,1,.72.72,7.09,7.09,0,0,0,2.8,4.45c3.66,3,7.89,3.1,12.27,2.43a49.16,49.16,0,0,0,11.94-3.67c5-2.14,9.92-4.34,14.92-6.39a56.78,56.78,0,0,1,5.65-1.73Zm60-38.64c2.12,2.23,4.12,4.08,5.83,6.16,5.34,6.46,7.14,14.22,7.81,22.32a88.1,88.1,0,0,1-.2,16.4,49.91,49.91,0,0,1-5.14,18,24.19,24.19,0,0,1-15.08,12.61,45.67,45.67,0,0,1-12.4,1.74c-7.28.07-14.56,0-21.84.06-1.38,0-2.79-.23-4,.75a1.26,1.26,0,0,1-.8.15c-1.63-.11-3.27-.15-4.88-.4-3-.47-6-.92-9-.22v12.05a2.87,2.87,0,0,0,.46.07c13.35,0,26.71,0,40.07,0a13.16,13.16,0,0,0,5.49-.79c10.95-5.3,21.59-11.17,32-17.5a6.74,6.74,0,0,0,2.16-2.28,53.63,53.63,0,0,0,5.19-12.81,79.85,79.85,0,0,0,2.23-28,65.29,65.29,0,0,0-4.13-18.47,43.1,43.1,0,0,0-11.11-16.42c-.33-.3-1.09-.59-1.38-.42C-239.13,73.34-242.9,75.72-246.59,78Zm125.07-6.62.11-.2c-.26-.28-.5-.58-.78-.84a37.84,37.84,0,0,0-12.71-7.94c-10.74-3.94-21.64-4-32.56-1C-177,64.05-185.19,69-191.38,76.86c-7.75,9.86-10.9,21.34-11.25,33.65a120.64,120.64,0,0,0,.71,14.21c.27,2.87,1,5.69,1.6,8.56l8.25-1.7c.14,0,.36-.1.39-.19.6-2.07,2.42-3,3.92-4.2a1.28,1.28,0,0,0,.25-1c-.24-2.82-.59-5.63-.79-8.45A63.82,63.82,0,0,1-185.4,94c3-9.43,8.84-16.33,18-20.19a38.34,38.34,0,0,1,17.49-2.5,27.38,27.38,0,0,1,14.14,4.61l1.12.75c-.32-1.24-.72-2.4-.92-3.59s.61-1.9,1.58-2.43a2,2,0,0,1,2.4.31,9.36,9.36,0,0,0,2.77,1.58c2,.63,4-.19,6-.66.14,0,.17-.53.23-.77Zm-125.54,6.66a65.94,65.94,0,0,0-6.08-2.62,43.38,43.38,0,0,0-12.67-1.66c-8.47-.1-16.95,0-25.43-.06-.35,0-.7,0-1.09.06V93.85a4.62,4.62,0,0,0,.66,0c3.49-.37,7-.92,10.46-1.1,6.46-.33,12.93-.42,19.39-.64,2.95-.11,5.91-.18,8.7-1.31s3.7-2.87,3-5.69a5.21,5.21,0,0,1,1.56-5.43C-248.09,79.26-247.72,78.79-247.06,78.06Zm-6.58,51.64a8.08,8.08,0,0,1-4.28-1.76,13.56,13.56,0,0,0-3.6-1.41c-.87-.25-1.83-.14-2.73-.31q-11-2.07-22-4.21c-2-.4-4-.94-6-1.41v35a19,19,0,0,0,2.32-1.18c.88-.6,1.63-1.4,2.52-2a47.73,47.73,0,0,0,4.84-3.06c3.52-3,6.9-6.18,10.3-9.33a21.08,21.08,0,0,1,5.79-4c3.21-1.42,6.34-3,9.48-4.55C-255.89,131-254.77,130.33-253.64,129.7Zm91.24-90.84v.31l6-.89c1.06-.15,1.07-.82.72-1.56A7.06,7.06,0,0,0-156.78,35c-2.56-2.8-5-5.7-7.75-8.32a59.31,59.31,0,0,0-15.05-11,15.07,15.07,0,0,0-7.71-1.83c-3.46.25-5.54,2.3-5.55,5.78,0,5,2,9.3,4.85,13.24a1.17,1.17,0,0,0,.9.39c1.51-.14,3-.37,4.51-.55,3.21-.38,6.35-.35,9.24,1.46,1.75,1.1,3.67,1.95,5.35,3.15A7,7,0,0,0-162.4,38.86Zm-130.17,81.28V94.26c-4.32.72-8.53,2-13,.41.4-.51.69-.93,1-1.3,1.33-1.43,2.78-2.78,4-4.3a49.11,49.11,0,0,0,4.49-6.3c1.24-2.19.58-3.61-1.63-4.8l-6.72-3.63-1.87-1a1.94,1.94,0,0,0-.09.23q0,21,0,42a1.29,1.29,0,0,0,.79.9c2.73.85,5.47,1.64,8.22,2.42C-295.79,119.3-294.22,119.7-292.57,120.14Zm125.4-5c-1,.61-1.81,1.1-2.62,1.69a64.85,64.85,0,0,1-11.22,7c-1.81.82-3.49,1.92-5.25,2.85-.66.34-1,.71-.69,1.5s.39,1.79.61,2.69c1.56,6.36,4,12.29,8.66,17.09,1.25,1.3,2.7,2.42,4.23,3.77,0-.56,0-.76.06-1l2.43-17.51a25.26,25.26,0,0,1,2.08-8,37.06,37.06,0,0,0,2.27-5.76A4.91,4.91,0,0,0-167.17,115.11ZM-329.45,61.22c-1.34,0-2.26,0-3.18,0a1.06,1.06,0,0,0-1.23.81q-3.51,9.57-7.1,19.12c-.29.76-.21,1.08.59,1.41a53.48,53.48,0,0,0,10,3c1.18.23,1.49-.13,1.86-1.07,2.26-5.9,4.58-11.79,6.88-17.67.77-2,.77-2-1-3.06-.44-.28-.9-.52-1.31-.84C-325.65,61.52-327.58,60.76-329.45,61.22Zm205.3,32.45c-4-9.33-6-12.83-8.19-14.38a1,1,0,0,0,.09.36,22.46,22.46,0,0,1,4,9.59,10.57,10.57,0,0,1,.1,3.88,2.11,2.11,0,0,0,1,2.56,35.47,35.47,0,0,0,11.34,4.92,12.81,12.81,0,0,0,6.39.21c2-.54,3-1.87,2.68-3.66-.56-3.48-2.33-6.43-4.28-9.3.24.82.48,1.64.73,2.54Zm-37.1,75.63c.62-4.24,1.18-8.07,1.75-12a36,36,0,0,1-13.4-5.12c.56,4.88,1.1,9.61,1.67,14.34a.81.81,0,0,0,.48.55C-167.64,167.83-164.51,168.54-161.25,169.3Zm-196.34-10.63-19.2,5.52c.42,1.11.72,2.06,1.14,2.95a1.32,1.32,0,0,0,1,.6q6.4.06,12.81,0a1.26,1.26,0,0,0,1-.6C-359.82,164.46-358.79,161.75-357.59,158.67Z" transform="translate(488.7 113.87)"/><path d="M-350.91,287.78a30.16,30.16,0,0,1,3.09,1.09c.26.12.42.79.39,1.19-.32,3.5-.69,7-1.06,10.49-.41,3.85-.83,7.7-1.26,11.61l13-19.51,3.62,1.22c-.79,7.72-1.58,15.38-2.37,23.06a3.3,3.3,0,0,0,.32-.4q6-9.12,11.92-18.26c.39-.6.73-.82,1.43-.52s1.65.59,2.61.93l-4.75,6.83c-3.62,5.21-7.26,10.42-10.86,15.65-.5.73-.92.95-1.74.56s-1.57-.56-2.51-.89c.77-7.67,1.54-15.32,2.29-22.81-1.63,2.47-3.34,5.1-5.1,7.71-2.39,3.54-4.82,7.06-7.2,10.61a1.11,1.11,0,0,1-1.55.54c-2.68-.92-2.63-.88-2.39-3.67.71-8,1.37-16.08,2-24.12Z" transform="translate(488.7 113.87)"/><path d="M-284.35-108.83c.19,7.51.38,15,.57,22.6h-3.44c-.16-9.07-.32-18.12-.49-27.45,1.24,0,2.39,0,3.52,0,.31,0,.67.39.86.69q6.56,10.32,13.08,20.66c.06.09.14.18.29.36-.19-7.35-.37-14.6-.55-21.94h3.43c.16,9.08.32,18.13.48,27.44-1.13,0-2.24.06-3.33,0-.3,0-.61-.46-.81-.78q-6.74-10.7-13.43-21.42A1.52,1.52,0,0,0-284.35-108.83Z" transform="translate(488.7 113.87)"/><path d="M-104.17-37.4l-19.67,19c-.75-.76-1.49-1.44-2.12-2.21a1.48,1.48,0,0,1-.2-1.15q3.21-12.21,6.46-24.41a1.45,1.45,0,0,0,0-.37l-16.06,15.73-2.48-2.41,19.79-19.13c.84.86,1.69,1.63,2.4,2.52a1.82,1.82,0,0,1,0,1.33q-3.12,12-6.28,24s0,.07,0,.1l15.51-15.71Z" transform="translate(488.7 113.87)"/><path d="M-428.07,259.84-412.48,245l2.37,2.54-20,18.62a1.57,1.57,0,0,1-.29-.14c-2.05-1.47-2.23-3.24-1.51-5.65,2.23-7.36,4.15-14.81,6.11-21.92l-16.1,15.23-2.37-2.51,20.06-18.71c.85.9,1.68,1.7,2.4,2.59a1.47,1.47,0,0,1,0,1.1C-423.88,244.21-426,252.25-428.07,259.84Z" transform="translate(488.7 113.87)"/><path d="M-204.62,304l8.74,4.44c.6-2.9,0-5.54-.49-8.35l3-1.25a22.41,22.41,0,0,1,.24,10.86l5.76,2.74c-2.35,1.57-4.63,2.15-7,.11-.32.53-.54.9-.77,1.26a11.09,11.09,0,0,1-8.49,5.4,7,7,0,0,1-7-3.12,8,8,0,0,1-.53-8.52c.42-.85,1-1.63,1.48-2.47-.87-.73-1.81-1.41-2.61-2.22a7,7,0,0,1-1.49-7.66,7.11,7.11,0,0,1,6.67-4.06,5.82,5.82,0,0,1,5.15,7.91A35.54,35.54,0,0,1-204.62,304Zm-2.64,2.33c-1.55,2.26-2.2,4.52-.89,7a5,5,0,0,0,5.24,2.84c2.87-.34,4.75-2,6-4.73Zm.38-3.51a41.83,41.83,0,0,0,2.15-4.49,3.78,3.78,0,0,0-1.68-4.05,3,3,0,0,0-3.47.18,3.5,3.5,0,0,0-1.13,4C-210.41,300.42-209,301.68-206.88,302.78Z" transform="translate(488.7 113.87)"/><path d="M-373.89-89.81c4.93-2.79,9.68-5.78,15.61-5.47a9.61,9.61,0,0,1,6.12,2.44c4.49,4.14,6.39,9.24,5.26,15.33a10.42,10.42,0,0,1-2.86,5.3c-2.7,2.88-9,6.26-13.16,7C-366.55-73.34-370.19-81.52-373.89-89.81Zm13.2,20.73a20.81,20.81,0,0,0,7.39-3.87,8.91,8.91,0,0,0,3.17-7,13.31,13.31,0,0,0-4-9.59,9.57,9.57,0,0,0-4.08-2.31c-4.21-1.07-7.75.88-11.29,3C-366.55-82.23-363.65-75.71-360.69-69.08Z" transform="translate(488.7 113.87)"/><path d="M-185.69,282.24a28.85,28.85,0,0,1,8.57-5.42c2.58-.94,5.2-1.1,7.44.9a6.21,6.21,0,0,1,1.44,7.35c-.23.5-.51,1-.84,1.58l1.35-.11a6.59,6.59,0,0,1,6.62,3,7,7,0,0,1,.38,7.7,10.91,10.91,0,0,1-2.09,2.6,33,33,0,0,1-9,5.57C-176.42,297.66-181,290-185.69,282.24Zm10.32,10.15,5.33,8.87c2.27-1.13,4.39-2.23,5.79-4.29a4.48,4.48,0,0,0,.07-5.17,4.58,4.58,0,0,0-4.59-2.4C-171.31,289.62-173.26,291.1-175.37,292.39Zm-6.11-10.14,4.68,7.74a28.33,28.33,0,0,0,3.17-2,10.29,10.29,0,0,0,2.32-2.52,3.83,3.83,0,0,0-.52-4.67,3.55,3.55,0,0,0-4.29-1.24C-177.91,280.29-179.59,281.3-181.48,282.25Z" transform="translate(488.7 113.87)"/><path d="M-430.19-31.17a21.36,21.36,0,0,1,4.61-.8,7.23,7.23,0,0,1,6.26,9.74c-1.08,3.19-3.31,5.6-5.54,8-.65.71-1.26,1.46-2,2.27l-20.65-17.94c2.26-3.41,4.45-6.82,8.1-8.85a6,6,0,0,1,7.08.41c2.19,1.72,2.72,4,2.16,6.65A4.37,4.37,0,0,0-430.19-31.17Zm-4.45,7.62,8.15,7.1A52.89,52.89,0,0,0-423-21.32a4.59,4.59,0,0,0-1-6.08,4.57,4.57,0,0,0-6.15-.33A50,50,0,0,0-434.64-23.55Zm-8.78-7.63,6.81,5.93c1.48-1.77,3.23-3.22,3.81-5.5a4.17,4.17,0,0,0-1.68-4.63,3.55,3.55,0,0,0-4.65,0A56.14,56.14,0,0,0-443.42-31.18Z" transform="translate(488.7 113.87)"/><path d="M-110.89,235a7.73,7.73,0,0,1,5.82-1.32,7.34,7.34,0,0,1,5.44,9.39c-1.05,3.6-3.49,6.32-5.86,9.07l-1.18,1.38-21.39-16.7c2-3.41,3.93-6.75,7.2-9,4-2.76,9-1,9.94,3.49A18.89,18.89,0,0,1-110.89,235Zm4.54,14a49.2,49.2,0,0,0,3.23-5.11,4.51,4.51,0,0,0-1.42-5.89,4.54,4.54,0,0,0-6.06,0,52.22,52.22,0,0,0-4.34,4.44l7.9,6.18A7.35,7.35,0,0,0-106.35,249Zm-10.42-8a48.58,48.58,0,0,0,3.16-5.56,3.87,3.87,0,0,0-1.74-4.78,3.64,3.64,0,0,0-4.85.32,31,31,0,0,0-3.3,3.9.91.91,0,0,0,.06.88C-121.33,237.5-119.19,239.15-116.77,241Z" transform="translate(488.7 113.87)"/><path d="M-128.13,253.89c1.9-.19,3.7-.74,5.39-.48,4.29.66,6.82,5.36,5.38,9.56-1,2.81-2.88,5-4.87,7-1,1.06-2.13,2-3.26,3.09l-19.79-18.46c2.24-3.22,4.49-6.32,7.88-8.31a6.22,6.22,0,0,1,7.77.6,6.2,6.2,0,0,1,1.79,6.24c-.06.31-.12.61-.17.92C-128,254.12-128,254.16-128.13,253.89Zm3.35,14.91a52.78,52.78,0,0,0,3.76-5,4.43,4.43,0,0,0-.94-5.87,4.46,4.46,0,0,0-5.91-.62,52.18,52.18,0,0,0-4.85,4.1Zm-9.82-9.15c1.54-1.76,3.4-3.16,4-5.49a4.07,4.07,0,0,0-1.47-4.49,3.75,3.75,0,0,0-4.55-.36,14.19,14.19,0,0,0-4.39,4.37Z" transform="translate(488.7 113.87)"/><path d="M-89.66,36.1l-1.19-3.4L-65,23.8c1,2.55,2.11,5,2.9,7.58a15,15,0,0,1,.6,4.94,6.18,6.18,0,0,1-4.21,5.62A7,7,0,0,1-73.07,41c-.47-.36-.89-.79-1.47-1.32-.42,3.55-3.2,4.95-5.74,6.58-1.57,1-3.11,2.09-4.76,3.21a29,29,0,0,1-1-2.9,1.27,1.27,0,0,1,.46-1.06c1.08-.81,2.22-1.55,3.36-2.3.93-.62,1.91-1.17,2.81-1.83,2.26-1.66,2.81-3.4,2-6.08-.31-1-.67-2-1-3.07Zm13.84-4.75c.42,1.23.72,2.39,1.21,3.47A11,11,0,0,0-73,37.57a4.66,4.66,0,0,0,5.68,1.09,4.49,4.49,0,0,0,2.82-4.79,13.7,13.7,0,0,0-2-5.75Z" transform="translate(488.7 113.87)"/><path d="M-234.82-109.93c-.37.85-.75,1.72-1.16,2.69a16,16,0,0,0-7.71-2A10,10,0,0,0-254-100.33c-.52,3.32-.28,6.49,1.85,9.24s5.36,3.75,8.79,3.88c3,.11,3,.09,3.43-2.85.24-1.77.42-3.55.64-5.45l-5.45-.72c.09-.92.18-1.81.28-2.87l9,1.1c-.3,2.58-.58,5-.88,7.48-.2,1.63-.38,3.26-.66,4.87a1.34,1.34,0,0,1-.79.92,22.82,22.82,0,0,1-11.6-.47c-5.85-1.88-9.26-7.32-8.65-13.63a15.7,15.7,0,0,1,2.26-7.25c3.27-5,8.11-6.62,13.8-6.09C-238.55-111.86-236.3-111-234.82-109.93Z" transform="translate(488.7 113.87)"/><path d="M-246.49,329c-1.73-8.89-3.43-17.65-5.16-26.53A32.26,32.26,0,0,1-243,300.3a13.15,13.15,0,0,1,3.81.1,6.45,6.45,0,0,1,5.38,5.42,7,7,0,0,1-2.56,7.28l-1,.76c3,.78,4.21,3.15,5.32,5.6.92,2,1.91,4,2.92,6.15a23.4,23.4,0,0,1-2.87.54,1.36,1.36,0,0,1-1.08-.62c-.89-1.69-1.68-3.44-2.51-5.16a21.38,21.38,0,0,0-1-2,4.57,4.57,0,0,0-5.08-2.31c-1.14.2-2.27.41-3.52.65.75,3.89,1.49,7.71,2.24,11.63Zm.8-14.79a55.67,55.67,0,0,0,6-1.89,4.46,4.46,0,0,0,2.54-4.75c-.38-2.43-1.58-3.93-3.7-4.31a12,12,0,0,0-6.81,1C-247,307.51-246.38,310.67-245.69,314.19Z" transform="translate(488.7 113.87)"/><path d="M-472.86,8.44-471,5.27c3.87,2.23,7.63,4.48,11.47,6.59A39.81,39.81,0,0,0-453,15a5.43,5.43,0,0,0,6.68-2.62,5.72,5.72,0,0,0-.76-7.46,16.62,16.62,0,0,0-3.37-2.65c-4.25-2.54-8.56-5-12.85-7.46-.41-.23-.81-.48-1.26-.74l1.86-3.21c5.38,3.18,10.7,6.33,16,9.5a8.81,8.81,0,0,1,1.54,1.33c2.59,2.56,3.69,5.64,2.65,9.18s-3.08,6.7-7.08,7.76a9.14,9.14,0,0,1-5.77-.46,39.27,39.27,0,0,1-4.61-2.25C-464.23,13.45-468.46,11-472.86,8.44Z" transform="translate(488.7 113.87)"/><path d="M-165.72,269.87l2.8-2.27c2.34,2.88,4.64,5.74,7,8.57,1.62,2,3.2,4,5,5.83,1.63,1.67,3.64,2.78,6.14,2.22a6,6,0,0,0,4.49-8.08,29.73,29.73,0,0,0-3.95-6.08c-2.75-3.57-5.65-7-8.56-10.61l2.84-2.3,3.42,4.23q3.33,4.1,6.64,8.2a14.56,14.56,0,0,1,3.34,6.8,7.86,7.86,0,0,1-.66,4.91,11.25,11.25,0,0,1-8.08,6.35,8.25,8.25,0,0,1-6.83-1.88,21,21,0,0,1-3.18-3.07c-3.35-4-6.61-8.13-9.91-12.2C-165.42,270.31-165.54,270.11-165.72,269.87Z" transform="translate(488.7 113.87)"/><path d="M-302.16,329.26a1.48,1.48,0,0,1-.32,0c-1.09-.24-2.49-.16-3.17-.82s-.48-2-.63-3.08c-.22-1.58-.43-3.16-.61-4.75a1.18,1.18,0,0,0-1.14-1.22c-2.56-.41-5.11-.92-7.64-1.48a1,1,0,0,0-1.3.62c-1.17,2.14-2.39,4.24-3.55,6.38-.29.52-.56.78-1.21.6-.91-.24-1.85-.38-2.88-.58,2.55-4.47,5-8.83,7.53-13.2,2.12-3.7,4.26-7.4,6.35-11.12a1.11,1.11,0,0,1,1.41-.65c3.25.61,3.27.58,3.73,3.83q1.74,12.45,3.45,24.9A3.21,3.21,0,0,1-302.16,329.26Zm-6.76-25.45c-2.08,3.78-4.15,7.51-6.27,11.35l7.88,1.52C-307.86,312.3-308.38,308.09-308.92,303.81Z" transform="translate(488.7 113.87)"/><path d="M-274,330.44c-.32-9.16-.64-18.21-1-27.4l14.78-.51.2,3-11.12.42v8.38h10.73v2.79l-10.25.4v9.76l11.95-.37v3Z" transform="translate(488.7 113.87)"/><path d="M-87.64,4.56c1.64,3.23,3.2,6.29,4.81,9.47l-2.64,1.39c-1.62-3.15-3.21-6.26-4.86-9.48L-99,10.37c1.8,3.55,3.55,7,5.37,10.56l-2.69,1.42-7-13.82L-78.93-3.94c2.27,4.44,4.49,8.8,6.75,13.25l-2.7,1.38C-76.59,7.36-78.25,4.1-80,.68Z" transform="translate(488.7 113.87)"/><path d="M-138.26-54.31-140.11-52l-8.4-6.53-6,7.7,9.32,7.3-1.85,2.42-12.21-9.54,16.92-21.66,11.73,9.16-1.87,2.4-8.88-6.92-5.27,6.75Z" transform="translate(488.7 113.87)"/><path d="M-400.79,290.69l14.94-23,12.45,8.08-1.65,2.55-9.42-6.1-4.66,7.15,8.9,5.82c-.54.82-1,1.61-1.62,2.5l-8.92-5.76-5.33,8.18,9.93,6.47-1.65,2.54Z" transform="translate(488.7 113.87)"/><path d="M-451.32,242-460,229.14l22.74-15.34,8.3,12.3-2.5,1.72-6.3-9.31-7.09,4.77,5.93,8.82-2.48,1.68c-2-2.94-3.93-5.81-5.95-8.8l-8.1,5.46,6.6,9.81Z" transform="translate(488.7 113.87)"/><path d="M-75.25,197l2.76,1.23-6.28,14.12-25.07-11.16c2-4.53,4-9,6-13.56l2.77,1.24c-1.52,3.44-3,6.78-4.55,10.26l7.8,3.48c1.45-3.23,2.88-6.41,4.35-9.7l2.72,1.21L-89,203.79l8.91,4C-78.48,204.16-76.88,200.61-75.25,197Z" transform="translate(488.7 113.87)"/><path d="M-334.45-105.68c1.13-.27,2.16-.57,3.21-.74a1.14,1.14,0,0,1,.89.5q5.66,9.67,11.25,19.37l.66,1.17c.27-3.28.5-6.33.79-9.37.46-4.82,1-9.62,1.49-14.43a1.37,1.37,0,0,1,.83-.9,29.5,29.5,0,0,1,3-.7c-.18,1.57-.33,3.06-.5,4.54-.89,7.66-1.8,15.32-2.66,23a1.72,1.72,0,0,1-1.67,1.81c-2.41.43-2.39.52-3.65-1.58l-13-21.54C-334-104.91-334.22-105.26-334.45-105.68Z" transform="translate(488.7 113.87)"/><path d="M-481.33,26.86l9.09,7.27c4.27,3.42,8.54,6.85,12.83,10.25a1.26,1.26,0,0,1,.54,1.68c-1,2.69-.94,2.73-3.79,2.69q-12.16-.15-24.33-.35c-.52,0-1-.08-1.71-.13l1.22-3.63,24.3.75c-2.69-2-5.48-4.08-8.23-6.19-3.48-2.67-6.93-5.4-10.42-8.07a1.13,1.13,0,0,1-.46-1.59C-481.92,28.71-481.67,27.83-481.33,26.86Z" transform="translate(488.7 113.87)"/><path d="M-461.43,172.6a11.63,11.63,0,0,0-.93-6.4c-1.31-2.55-3.75-3.4-6-2.07a4.13,4.13,0,0,0-1.94,3.16c-.3,2.09-.37,4.22-.71,6.3-.59,3.63-2.61,5.76-5.88,6.45a7.47,7.47,0,0,1-8.13-3.51,14.88,14.88,0,0,1-2.28-10.41l3-.19a27.2,27.2,0,0,0,.05,4.25,14,14,0,0,0,1.33,4,4.12,4.12,0,0,0,4.45,2.4,4.37,4.37,0,0,0,4-3.64c.32-1.63.32-3.33.54-5a15.67,15.67,0,0,1,.66-3.27,6.88,6.88,0,0,1,11.31-2.82c2.85,2.65,3.79,6.11,3.62,9.9a1.12,1.12,0,0,1-.76.76A16.63,16.63,0,0,1-461.43,172.6Z" transform="translate(488.7 113.87)"/><path d="M-88.68,166.26l2.52,1.86a11.17,11.17,0,0,0-3.13,5.8,4.23,4.23,0,0,0,1.85,4.57,3.89,3.89,0,0,0,4.86-.6c1-.84,1.76-1.85,2.66-2.76a31.82,31.82,0,0,1,2.8-2.77,7,7,0,0,1,8-.8A7.14,7.14,0,0,1-65,178.31a14.48,14.48,0,0,1-3.7,9.75,9.25,9.25,0,0,1-.83.78l-2.41-1.67a23,23,0,0,0,2.57-3.66,12.29,12.29,0,0,0,1.25-4.78,4.33,4.33,0,0,0-6.75-3.55,22.29,22.29,0,0,0-3.19,3c-.84.85-1.59,1.8-2.48,2.59a6.8,6.8,0,0,1-7.57,1.35,6.75,6.75,0,0,1-4.25-6.28A12.94,12.94,0,0,1-88.68,166.26Z" transform="translate(488.7 113.87)"/><path d="M-166.72-59.52c0,.09.05.13,0,.17-.8,2.92-.13,3-3.35,2a18.22,18.22,0,0,1-7.07-3.93c-3.47-3.15-5-7.05-4-11.65,1.39-6.08,4.73-10.69,11.08-12.28,5.18-1.3,9.57.7,13.51,3.91a24.26,24.26,0,0,1,2.07,2.11l-2.16,2.12c-4-4.11-8.36-7-14.27-4.2-4.3,2.08-7.41,7.92-6.62,12.51C-176.45-62.88-171.85-60.88-166.72-59.52Z" transform="translate(488.7 113.87)"/><path d="M-392.58,263.43l-2.44,1.79c-3.45-4.71-7.47-8.26-13.81-6.08-4.33,1.5-8.26,6.95-8.09,11.28.25,6,4.46,8.72,9.5,10.74l-1.15,2.7c-4.79-1.77-8.78-4.36-11-9-2-4.29-1.23-8.43,1.28-12.29,3-4.61,7.05-7.59,12.77-7.3S-395.76,258.78-392.58,263.43Z" transform="translate(488.7 113.87)"/><path d="M-446.79,199.9l-2.83.35c-.88-5.75-2.74-10.88-9.25-11.72a11.79,11.79,0,0,0-12.4,6c-3,5.34-.26,9.79,3.13,13.95a.67.67,0,0,1-.17.24c-.62.51-1.24,1-1.85,1.49-.11,0-.22,0-.26,0-3.77-4-6.1-8.65-5.17-14.31.88-5.3,4.58-8.25,9.29-10.07,7.56-2.91,14.8.22,18.07,7.73A13.82,13.82,0,0,1-446.79,199.9Z" transform="translate(488.7 113.87)"/><path d="M-278.76,303.31c-.1,1-.19,2-.3,3l-8.3-.67c-.71,8.08-1.41,16.09-2.13,24.21l-3.62-.3c.71-8.12,1.41-16.1,2.12-24.23l-8.24-.77.22-3Z" transform="translate(488.7 113.87)"/><path d="M-95.34-21.76l-4.87-6.72,2.47-1.84,12,16.47L-88.26-12c-1.66-2.27-3.25-4.46-4.93-6.75L-112.91-4.46l-2.15-3Z" transform="translate(488.7 113.87)"/><path d="M-91.07,227l6.19-9.88,2.59,1.59-8.11,13-23.27-14.54,1.92-3.07Z" transform="translate(488.7 113.87)"/><path d="M-301.87-112.27l3.57-.44c1.12,9.09,2.22,18.11,3.34,27.23l-3.57.44C-299.64-94.13-300.75-103.13-301.87-112.27Z" transform="translate(488.7 113.87)"/><path d="M-442.41,205.7l1.83,3.12-23.74,13.71-1.84-3.11Z" transform="translate(488.7 113.87)"/><path d="M-344.81-102.25l3.41-1.19,8.94,26-3.4,1.2C-338.84-84.91-341.79-93.49-344.81-102.25Z" transform="translate(488.7 113.87)"/><path d="M-62.84,116.2A5.18,5.18,0,0,1-68,111a5.2,5.2,0,0,1,5.28-5.2,5.19,5.19,0,0,1,5.14,5.22A5.17,5.17,0,0,1-62.84,116.2Z" transform="translate(488.7 113.87)"/><path d="M-477.92,111a5.08,5.08,0,0,1-5.15,5.16,5.16,5.16,0,0,1-5.21-5.26,5.15,5.15,0,0,1,5.24-5.1A5.1,5.1,0,0,1-477.92,111Z" transform="translate(488.7 113.87)"/><path d="M-371.36,302.14c-2.66,2.31-5.1,4.47-7.6,6.55-1.1.91-1.94-.34-2.88-.45,2.06-2.44,4-4.82,6.07-7.16a1.12,1.12,0,0,1,1-.26C-373.77,301.14-372.78,301.58-371.36,302.14Z" transform="translate(488.7 113.87)"/><path d="M-408.86-31.85a2.75,2.75,0,0,1-2.66-2.69A2.44,2.44,0,0,1-409.08-37a2.82,2.82,0,0,1,2.67,2.71A2.42,2.42,0,0,1-408.86-31.85Z" transform="translate(488.7 113.87)"/><path d="M-454.79,32.8a2.63,2.63,0,0,1-2.8-2.5,2.34,2.34,0,0,1,2.35-2.46,2.66,2.66,0,0,1,2.82,2.48A2.39,2.39,0,0,1-454.79,32.8Z" transform="translate(488.7 113.87)"/><path d="M-434.35-2.84a2.76,2.76,0,0,1-2.77-2.58,2.47,2.47,0,0,1,2.41-2.46,2.83,2.83,0,0,1,2.78,2.59A2.47,2.47,0,0,1-434.35-2.84Z" transform="translate(488.7 113.87)"/></svg>