<?xml version="1.0" encoding="utf-8"?>
<svg version="1.1" xmlns="http://www.w3.org/2000/svg" xmlns:xlink="http://www.w3.org/1999/xlink" x="0px" y="0px"
	 viewBox="0 0 215 66" style="enable-background:new 0 0 215 66;" xml:space="preserve">
<style type="text/css">
	.st0{fill:#BA202D;}
</style>
<g>
	<path class="st0" d="M0.1,25.4c1.2,0.6,2.6,1.1,4,1.1c1.1,0,2.5-0.5,2.4-1.9c-0.1-1.1-1.3-1.5-2.3-1.9C3,22.2,1.9,22,0.9,21.1
		c-1.8-1.9-1.1-5.3,1.1-6.5c1.1-0.6,2.5-0.8,3.8-0.7c0.7,0,1.3,0.2,2,0.4c0.4,0.1,0.6,0.1,0.8,0.4c0.2,0.5,0,1.5,0,2
		c0,0.2,0.1,0.5,0,0.7c-0.2,0.4-0.4,0.1-0.7,0c-1.1-0.4-2.8-0.6-3.9,0c-1,0.6-0.7,1.6,0.2,2.1c1.5,0.8,3.3,0.9,4.5,2.2
		c1.7,1.9,1.3,5-0.5,6.6c-1.1,1-2.6,1.4-4,1.4c-0.7,0-1.4,0-2-0.2c-0.5-0.1-1.7-0.4-2-0.8C0,28.4,0.1,27.5,0.1,27
		C0.1,26.7-0.1,25.8,0.1,25.4z M15.1,14.2l0.3,1.1c1.1-1,2.6-1.4,4.1-1.4c1.9-0.1,3.7,0.8,4.9,2.2c1.1,1.5,1.7,3.3,1.6,5.1
		c0.1,2.2-0.6,4.3-1.9,6.1c-1.4,1.7-3.5,2.6-5.7,2.5c-1,0-1.9-0.1-2.7-0.4v6.9h-3.4V14.2H15.1z M15.7,25.9c0.9,0.4,1.9,0.5,2.8,0.5
		c1.1,0,2.3-0.5,3-1.5c0.7-1,1-2,1-3.2c0-1.1-0.3-2.2-0.9-3.2c-0.6-0.9-1.7-1.5-2.7-1.4c-1.1,0-2.2,0.4-3.2,1V25.9L15.7,25.9z
		 M28.1,21.9c-0.1-3.3,1.8-6.4,4.9-7.5c3-1.1,6.5-0.3,8.5,2.3c1.9,2.6,2.2,6.4,0.7,9.3c-1.6,2.9-4.9,4.4-8.1,3.8
		C30.4,28.9,28,25.5,28.1,21.9z M31.6,21.8c-0.1,2.5,1.5,4.7,4.1,4.7c2.6,0,4-2.1,4-4.6s-1.3-4.7-4-4.7
		C33.1,17.2,31.5,19.3,31.6,21.8z M55.1,18c-0.8-0.5-1.7-0.8-2.6-0.8c-1.1,0-2.2,0.4-3.1,1.1v11.1H46V14.2h2.9l0.4,1.2
		c1-1,2.4-1.5,3.8-1.6c0.5,0,1.1,0,1.6,0.1c0.5,0.1,1.1,0.3,1.5,0.4L55.1,18z M59.2,14.2v-3.9l3-0.3h0.4v4.1h4.6v3.4h-4.6v5.2
		c-0.1,0.9,0.1,1.9,0.4,2.7c0.4,0.7,1.1,1.1,2.3,1.1c0.5,0,1.1-0.1,1.6-0.2s1-0.2,1.5-0.4l0.6,3.3c-0.6,0.2-1.3,0.4-2,0.4
		c-0.7,0.1-1.4,0.2-2.1,0.2c-1.4,0.1-2.8-0.4-4-1.4c-1.2-1.2-1.9-2.9-1.8-4.7v-6.4h-1.9v-3.3H59.2z M91.6,21.4
		c1.9-2.3,4.7-3.5,7.6-3.4c8.6,0,10.9,6.7,10.9,11.4v13.9c0.1,2.3,1.7,4.3,3.9,4.9c8.5-8.6,8.3-22.5-0.4-30.9
		c-8.1-7.9-21-8.4-29.6-0.9C87.3,16.6,90.2,18.5,91.6,21.4z"/>
	<path class="st0" d="M105.1,43.2V29.3c0.1-3.4-2.7-6.4-6.2-6.3c-3.4,0-6.3,2.8-6.3,6.3v13.1l0,0c0,3.3-5,3.3-5,0V25.5
		c-0.3-4.3-4-5.3-7-5.4c-7.1,9.7-4.9,23.4,4.9,30.5c7.1,5.1,16.7,5.6,24.2,1C105.2,48.7,105.1,43.2,105.1,43.2z M130.9,34.2h0.5v7.1
		c1.1-0.9,2.5-1.3,3.9-1.3c1.9-0.1,3.7,0.8,4.9,2.2c1.1,1.5,1.7,3.3,1.6,5.1c0.1,2.2-0.6,4.3-1.9,6.1c-1.4,1.7-3.5,2.6-5.7,2.5
		c-1.1,0-2.1-0.2-3.2-0.4c-1.1-0.3-2.1-0.5-3.1-1V34.8L130.9,34.2z M131.4,52.1c0.9,0.3,1.9,0.4,2.8,0.4c1.1,0,2.3-0.5,3-1.5
		c0.7-1,1-2,1-3.2s-0.3-2.2-1-3.2c-0.6-0.9-1.7-1.5-2.7-1.4c-1.1,0-2.2,0.4-3.2,1L131.4,52.1z M153.8,44c-0.8-0.5-1.7-0.8-2.6-0.8
		c-1.1,0-2.2,0.4-3.1,1.1v11.1h-3.5V40.2h2.9l0.4,1.2c1.1-1,2.5-1.5,3.9-1.6c0.5,0,1.1,0,1.6,0.2c0.5,0.1,1.1,0.3,1.5,0.4L153.8,44z
		 M167.6,55.6l-0.4-1.1c-1.4,1-3.2,1.5-4.9,1.5c-1.4,0.1-2.8-0.4-3.9-1.2c-1.1-1.1-1.8-2.6-1.7-4.1V40.2h3.4v9.2
		c-0.1,1,0.4,1.9,1.1,2.5c0.7,0.5,1.6,0.8,2.4,0.7c1.1,0,2.3-0.4,3.4-1V40.2h3.4v15.3H167.6z M173,51.5c1.4,0.7,6.5,2.3,6.4-0.8
		c-0.1-1.1-1.3-1.5-2.3-1.9c-1.1-0.4-2.3-0.7-3.2-1.6c-1.8-1.9-1.1-5.3,1.1-6.5c1.1-0.6,2.5-0.8,3.8-0.7c0.7,0,1.3,0.2,2,0.4
		c0.4,0.1,0.6,0.1,0.8,0.4c0.2,0.5,0,1.5,0,2c0,0.2,0.1,0.5,0,0.7c-0.2,0.4-0.4,0.1-0.7,0c-1.1-0.4-2.8-0.6-3.9,0
		c-1,0.6-0.7,1.6,0.2,2c1.5,0.8,3.3,0.9,4.5,2.2c1.7,1.9,1.3,5-0.5,6.6c-1.1,1-2.6,1.4-4,1.4c-0.7,0-1.4,0-2-0.2
		c-0.5-0.1-1.7-0.4-2-0.8c-0.4-0.4-0.1-1.3-0.1-1.8C172.9,52.7,172.8,51.9,173,51.5z M184.1,51.5c1.4,0.7,6.5,2.3,6.4-0.8
		c-0.1-1.1-1.3-1.5-2.3-1.9c-1.1-0.4-2.3-0.7-3.2-1.6c-1.8-1.9-1.1-5.3,1.1-6.5c1.1-0.6,2.5-0.8,3.8-0.7c0.7,0,1.3,0.2,2,0.4
		c0.4,0.1,0.6,0.1,0.8,0.4c0.2,0.5,0,1.5,0,2c0,0.2,0.1,0.5,0,0.7c-0.2,0.4-0.4,0.1-0.7,0c-1.1-0.4-2.8-0.6-3.9,0
		c-1,0.6-0.7,1.6,0.2,2c1.5,0.8,3.3,0.9,4.5,2.2c1.7,1.9,1.3,5-0.5,6.6c-1.1,1-2.6,1.4-4,1.4c-0.7,0-1.4,0-2-0.2
		c-0.5-0.1-1.7-0.4-2-0.8c-0.4-0.4-0.1-1.3-0.1-1.8C184.1,52.7,183.9,51.9,184.1,51.5z M207.7,51.6V55c-1.4,0.6-2.8,0.9-4.3,0.9
		c-2,0.1-4-0.6-5.6-1.9c-1.6-1.6-2.5-3.7-2.4-6c-0.1-2.2,0.7-4.3,2.1-5.9c1.2-1.3,2.9-2,4.8-2c0.8,0,1.5,0.1,2.3,0.4
		c1.1,0.4,1.9,1.1,2.6,1.9c0.9,1.4,1.3,3,1.2,4.7v2.3h-9.3c0.2,1.1,0.8,2,1.8,2.6c0.8,0.5,1.8,0.8,2.8,0.7
		C205,52.6,206.4,52.2,207.7,51.6L207.7,51.6L207.7,51.6z M205.4,46.5c0-0.9-0.4-1.8-1-2.5c-0.5-0.4-1.1-0.7-1.9-0.7s-1.5,0.3-2,0.7
		c-0.7,0.6-1.1,1.5-1.3,2.5H205.4z M214.9,34.2v21.3h-3.4V34.5l3-0.3H214.9z"/>
</g>
</svg>
