<svg xmlns="http://www.w3.org/2000/svg" viewBox="0 0 1279.66 208.79"><path style="fill: #f8f8f8" d="M66.2,216.8c-5.9,5.9-2.5,22.2,9.2,45.7,4.2,8.2,8.7,18.1,10.2,21.9,2.8,7.4,4.5,19.6,2.6,19.6a2.06,2.06,0,0,1-1.7-1c-.3-.5-4.4-4.1-8.9-7.9-11.4-9.5-16.1-16-16.3-22.6-.1-2.7-.2-5.3-.2-5.7a5.22,5.22,0,0,0-2.3-1.9c-1.8-1-2.4-.8-3.5.7-2.2,3-1.5,7.8,2.2,15,4.1,8.1,6.5,10.8,16.6,19,8.3,6.9,12,11.7,14.9,19.3,2.1,5.5,2.7,16.2,1.1,20.4l-.9,2.3-16.4-2.3c-21.2-3.1-47.4-3.5-59.3-.9A80.45,80.45,0,0,0,4,341c-1.4.7-1.8,6.2-2.8,40.1-.7,21.6-1,39.4-.8,39.6s170,.8,377.3,1.3,495,1.2,639.6,1.5l262.7.7V338.8l-2.2.6c-15,4.1-22.8,5-42.8,5-18.4,0-21.8-.2-33.5-2.7-17.6-3.6-30.9-4.7-57.5-4.7-31.2,0-53.9,2.2-62.8,6.1-4,1.7-4.9,1.7-12,.5-4.2-.8-12-2.2-17.2-3.1s-10.5-1.8-11.8-2.1c-2.1-.4-1.9-.8,3.3-6.8,5.6-6.3,5.8-6.4,11.5-6.8,3.6-.3,6.4-1,7.4-2.1,1.6-1.5,2-1.5,4.6-.2,4,2.1,5.4,1.9,8.7-.9,2.2-2,2.6-2.8,1.7-4.2s-2.6-1.8-8.8-1.9c-4.9-.1-8.3.3-9.4,1.2-2.3,1.7-5.2,1.6-5.2-.2,0-1.6,7.8-6.5,10.4-6.5a10.31,10.31,0,0,0,4.7-2.1l2.9-2,4.2,3.5c4.7,4.1,5.2,4.2,10,2.1,3.1-1.2,3.5-1.8,3-4.1-.7-4-6.9-6.3-16.1-6.2-5.3.1-7.5-.2-8.2-1.3-1.1-1.7-.2-6.6,1.7-9.6,1.3-2.1,1.5-2.1,4.5-.6,2.5,1.2,5,1.4,11.3,1,7.4-.6,8.5-.5,12.5,1.9,5,2.8,6.1,2.2,6.1-3.4,0-3-.2-3.2-3.2-3.2a31.76,31.76,0,0,1-8.1-1.7c-3.9-1.4-5.2-1.5-6.7-.5-2.3,1.4-6,1.6-6,.3,0-1.6,2.5-2.8,7.2-3.5,5.7-.9,6.9-2.3,3.8-4.8-2.4-1.9-8-2.4-10.9-.9-3.2,1.8-4.6-.3-4.4-6.6.4-9.8-1.2-12.6-5.1-8.8-1.8,1.9-1.3,6.1,1.5,11.7,2.6,5.2,2.4,7.1-1.3,8.8-3,1.5-4.1,3.5-6.9,12.8a10.57,10.57,0,0,0-.3,5.5c.5,1.8.4,2-.7.9-1.8-1.7-1.4-10.7.6-15.6,1.5-3.5,1.5-4,0-6.3s-1.7-2.4-2.9-.6c-2.7,4-3.5,8.3-3.8,20.2-.3,10.4-.6,12.6-2.1,13.5a2.71,2.71,0,0,1-3.4,0c-2.1-1.4-2.1-3.3.1-9.1,1.8-4.8,1.3-6.9-1.6-7.9-6.4-2-10.5,14-4.8,19.1,1.9,1.7,1.9,1.9.2,4.7-2,3.4-4.7,5.2-6.8,4.4-1.8-.7-1.9-7.4-.2-14.6.9-4,.9-5.8-.1-8.5s-.9-4.2.3-8a29.64,29.64,0,0,0,1.6-8.1c0-4.6,1.4-7,4.4-7.8s6.7-5.6,6.9-9.3c.2-2.4-.1-2.8-2.3-2.5a12.12,12.12,0,0,0-8.8,6.3c-2.3,4-3.2,3.6-3.2-1.5,0-3.3.7-5.2,3-8.1,3.6-4.5,3.7-6.4.7-9.4-1.9-1.7-2.6-1.9-3.4-.9-2,2.4-6.3,13.8-6.9,18.1-.5,3.6-.2,4.8,2,7.4,1.4,1.7,2.6,3.8,2.6,4.6,0,2.6-1.2,4.7-2.6,4.7-2.6,0-4.9-5.2-5.4-12.4-.4-5.5-.9-7.2-2.1-7.4-2.5-.5-3,2.3-2.3,10.6.7,7,1,7.8,4.1,10.7s3.5,3.9,4,9.1c.7,9.3.6,12.6-.5,17.4a34,34,0,0,0-.5,10.2c.3,3.2.2,5.8-.3,5.8-2,0-3.2-4.1-3.9-12.6-.9-10.7-2.4-14.3-7-16.8-2.3-1.3-3.4-2.5-3.1-3.5,1.2-3.8,2.7-15.9,2.4-19.3-.1-2,.1-4,.5-4.4s.7-2.2.7-4c0-2.4-.5-3.4-2-3.9-2.9-.9-3.6-.1-5,5.2l-1.2,4.8-1.3-3.3c-.8-1.8-2.1-3.5-3-3.8-1.1-.4-1.5-2-1.5-5.4a14,14,0,0,0-7.1-12.1c-3.2-1.7-3.5,1.6-.5,5.2a10.57,10.57,0,0,1,2.6,6c0,3.3-.5,3.4-4,1.4-2.8-1.6-5-1.9-5-.7,0,1.8,10.5,13.3,12.6,13.8,1.3.3,2.4,1,2.4,1.4s.5,4.4,1.1,8.6c1.3,9.2,3.9,14.9,7.9,17.2,3,1.7,4,3.8,4,8.5,0,4.1,3.9,18.7,5.6,21.1,1.9,2.7,1.8,6.6-.2,6.6-1.8,0-4.4-5.8-4.4-9.9a22.47,22.47,0,0,0-1.6-7c-1.3-3.2-2.4-4.3-5.9-5.7-4.8-1.8-6-3.8-7.1-11.6a21.09,21.09,0,0,1,.6-8.1c1.7-4.4.7-7.8-3-11.4-1.9-1.8-3-3.8-3-5.6,0-3-3.9-7.7-6.5-7.7-2.3,0-2,7.1.5,10.3a9,9,0,0,1,2,4.1c0,1.5-.3,1.5-2.9.2-1.6-.9-3.1-2.2-3.4-3s-2.4-2-4.6-2.7c-3-.9-4.1-1.8-4.6-3.8-.8-3-5.3-8.1-7.2-8.1a13.76,13.76,0,0,1-4.3-1.5c-2.3-1.2-3.1-2.5-4-6.9-1.1-5.6-2.5-7.4-7.4-10-3.4-1.7-6.6-.6-6.6,2.3,0,1.4,1,2,3.9,2.5,4,.6,5.1,2,5.1,6a8.56,8.56,0,0,0,1.5,4.2c1.7,2.2,2,3.8.5,2.9-.6-.4-2.4-.4-4,0-2.4.5-3,1.2-3,3.2,0,2.3.3,2.5,2.8,1.9,1.5-.4,4.8-.9,7.3-1.3,4.3-.5,4.7-.3,7.2,2.8a57.42,57.42,0,0,0,4.2,5.1c1.4,1.7,1.3,1.8-1.6,1.8a17.29,17.29,0,0,1-6.8-2.2c-3.8-2.2-3.9-2.2-8-.4-2.2,1.1-4.7,2.9-5.5,4.1-1.4,2-1.3,2.4.3,3.9,2.3,2.1,2.8,2,6.3-.9s5.5-3.1,8.3-1.1c1.1.8,4.5,1.6,7.5,1.9,9.6.9,15.1,2.3,17.2,4.5l2.1,2.1-2.9.6c-5.7,1.3-8.6,2.9-9.5,5.2-1.3,3.4-1.3,3.3,2.6,3.3a12.53,12.53,0,0,0,6.5-2.1c2.7-2.1,3-2.1,5.4-.6a7.94,7.94,0,0,1,3.1,5.4,38,38,0,0,0,2.1,7c2.1,4.7,1.7,5.7-1.2,3.4-2.7-2.1-7.8-2.8-8.8-1.2-.6,1,5.6,5.5,9.7,7a23,23,0,0,0,6.8,1.1c3.6,0,4.1.3,5.4,3.3a36.08,36.08,0,0,1,2,8.3l.7,4.9-7.6,2.3c-7.2,2.1-9.2,2.2-43.9,2.2H927.3l-11.4-3c-27-7-30.3-7.4-57.4-7.4-29.3-.1-32.3.3-55.5,8.2-14.8,5-17.6,5.6-26.8,6a107.65,107.65,0,0,1-14.8-.3c-4-.6-4.7-1.1-6.1-4.3-1.4-3.4-1.4-3.9,1.2-10.1,4.8-11.7,3.4-22.7-3.8-30.8-4-4.5-5,.4-1.7,8.7,2.7,6.8,2.5,9-1.1,19.4-1.8,5.2-2.9,10.1-2.7,11.8.5,2.9.5,2.9-3.6,2.2-2.3-.3-4.4-1.1-4.8-1.8-1.3-2-5-16.8-5.5-22-.4-3.9.2-7.7,2.6-15.9,4.4-15.2,3.9-23.1-1.9-28.9-5.6-5.6-8.5-2.3-4.5,5.1,4,7,3.8,14.3-.6,22.4-3.1,5.7-3.4,6.9-3.4,15.2.1,7,.6,10.5,2.5,15.7,1.3,3.7,2.2,6.9,2,7.1s-3,.1-6.1-.5l-5.7-1-.6-5.9c-.9-7.3-2.2-11.1-5.8-16.8-3.9-6.2-3.6-10.2,1.1-20.8,4.5-9.9,8.1-22.1,8.1-27.1,0-4.7-2.2-9-7.2-14.5-7-7.4-10.8-5.3-5.3,2.9,3.2,4.7,5.9,13.7,4.9,16.6a81.13,81.13,0,0,1-5,9.9c-5.6,9.6-7.4,14.9-7.4,21.2,0,4.9,3.2,17,7.1,26.9a29,29,0,0,1,1.9,5.6c0,.5-8.3,1.2-18.7,1.5-15,.4-22.1,1.1-34.9,3.5-24.9,4.7-34.3,5.5-56.8,4.9-22.3-.6-28.2-1.6-46.6-7.7-15.7-5.3-28.6-6.7-45.7-5.2a194.49,194.49,0,0,0-47.5,9.7c-20.1,6.6-28.2,6.3-58.9-2.6-7.5-2.1-16.7-4.6-20.5-5.4s-7.9-1.8-9.1-2L369,333l1.9-5c1-2.7,4.3-8.4,7.3-12.7,8.4-12,9.4-14.5,9-22.4-.3-3.9-8.1-12-15.2-15.8-3.4-1.8-6.4-3.9-6.7-4.7-.9-2.4,3.3-5.9,10.5-8.9,7.6-3.2,18.3-11.9,20.2-16.4a9.53,9.53,0,0,0,.6-5.4c-.7-3.1-4.4-7.7-6-7.7-.7,0-2.4,2.7-3.8,5.9-2.9,6.7-5.9,9-17.3,13.5-9.4,3.7-13.2,6.8-14.6,11.6-2.1,6.9-.1,11.1,10.2,21.3,8,7.9,8.9,9.2,8.9,12.5,0,4.2-2.6,9.7-7.3,15.7a39.66,39.66,0,0,0-5.4,10.5l-2.2,6.5-9.8.6a241.27,241.27,0,0,0-25.3,4c-14.7,3.1-16.6,3.3-36,3.3-15.9,0-26.2-.7-46-2.9a391.35,391.35,0,0,0-44.5-2.9c-20.7,0-25.3.6-44.1,5.9-14.5,4.1-28.1,5.9-38.5,5l-7.6-.7,1.9-7.1c2.3-8.4,3.8-10.3,13-15.7,6.6-4,13.9-10.9,23-21.7A69.92,69.92,0,0,1,156.3,289c3.7-2.8,6.7-5.4,6.7-5.7,0-2.1-3.7-8.4-5.2-8.9-3.5-1.1-11.5,4.5-16.3,11.4s-5,7.1-3.4.3c1.7-7.7-3.3-26.6-7-25.9-1.7.4-1.8.9-.6,14.4.7,7.5.6,8.6-1.8,13.8a59.46,59.46,0,0,1-8,11.4c-6.2,6.5-16.1,21.2-18.9,28.1l-1.9,4.6.6-9.5c.5-8.2.3-10.8-2-19.5C88.3,265.1,88,262.3,93,251.1c2.4-5.6,2.9-7.8,2.3-9.8-1.5-4.3-3.8-5.1-6.8-2.3-2.8,2.6-7.5,11.8-7.5,14.7a6.39,6.39,0,0,1-1,3.3c-.7,1.1-1.4.3-3-3.5-3.5-8-5-15.3-5.5-26C70.9,216,69.6,213.4,66.2,216.8Z" transform="translate(-0.34 -215.41)"/></svg>