<?xml version="1.0" encoding="utf-8"?>
<!-- Generator: Adobe Illustrator 26.0.3, SVG Export Plug-In . SVG Version: 6.00 Build 0)  -->
<svg version="1.1" id="Laag_1" xmlns="http://www.w3.org/2000/svg" xmlns:xlink="http://www.w3.org/1999/xlink" x="0px" y="0px"
	 viewBox="0 0 431.1 444.3" style="enable-background:new 0 0 431.1 444.3;" xml:space="preserve">
<style type="text/css">
	.st0{fill:#FFFFFF;}
</style>
<ellipse class="st0" cx="215.5" cy="222.1" rx="215.5" ry="222.2"/>
<path d="M156.3,201.3c-3.1-1.2-6.1-2.4-9.1-3.6c-6.2-2.5-12.4-5.1-18.1-8.8c-2-1.2-3.8-2.8-5.2-4.7c-0.3-0.5-0.6-1-0.8-1.5
	c-0.6-1.1-0.4-2.6,0.5-3.4c0.5-0.6,1.1-1.1,1.7-1.6c4.6-3.3,7.5-7.9,9.6-13c1.3-3.2,2.2-6.6,3.3-10c1.6,0.6,3.1,1.5,4.3,2.8
	c2.1,2,4.1,4.2,6,6.5c3.9,5.2,8.7,9.3,13.8,13.1c2.2,1.6,4.4,3.2,6.6,4.7c0.5,0.3,1.2,0.5,1.8,0.5c1.6,0.1,3.2,0,5.1,0l-1.2,3.2
	l12.1,7.2v-10.5h1.2c11.1,0,22.2-0.1,33.3,0c5.4,0,10.9,0.4,16.1,2c3.8,1.2,7.4,3.1,10.6,5.7c0.3,0.2,0.7,0.3,1,0.2
	c6.7-3.5,13.4-7.1,20.1-10.7c0.1,0,0.1-0.1,0.2-0.5c-3-0.1-6-0.2-9.1-0.2c-1.9,0-3.9,0.3-5.9,0.4c-0.4,0-0.8-0.2-1.1-0.4
	c-4.7-2.3-9.3-4.9-14.1-7c-5.1-2.4-10.7-3.6-16.3-3.6c-0.9,0-1.8,0.2-2.6,0.4c-1.7,0.4-2.8,1.9-2.9,3.7c-1.4,0.2-2,0-3.4-1.1
	c-0.7,0.7-1.3,1.4-2,2.1c-1.2,1.2-2.5,1.5-3.5,0.9c-1.4-0.8-1.8-2.1-1.4-3.9c0.7-2.8,2.5-4.9,4.3-7c2.6-3,5.9-4,9.7-4.2
	c6.1-0.3,12,1.2,17.9,2.4c4.4,0.9,8.7,1.9,13.1,2.6c2.7,0.3,5.5,0.1,8.1-0.7c5.2-1.2,10.5-2.6,15.7-3.8c2.7-0.6,5.5-0.9,8.1-1.3
	c-0.7-2.4-1.6-4.9-2.1-7.5c-0.8-3.2-0.5-6.6,0.8-9.7c1.9-4.1,4.4-5.4,8.7-4.4c3.7,1,7.3,2.7,10.5,4.9c6.2,3.8,11.8,8.7,16.6,14.3
	c0.8,1,1.4,2,2.3,3.2c0.5-0.8,1-1.6,1.4-2.5c1.1-3,3.3-4.9,6-6.2c4.3-2.3,9.2-3.3,14.1-2.9c3.9,0.3,7,1.9,9.1,5.6
	c2.3,4.1,4.4,8.2,5.3,12.8c0.6,2.7,0.4,5.6-0.7,8.1c-0.9,2.1-1.6,4.3-2.6,6.4c-0.3,0.7-0.8,1.4-1.3,2c-1.7,1.5-3.4,2.8-5.4,4.4
	c0.9,1.6,1.9,3.2,3.1,4.7c4.8,5.2,8.7,11.3,11.4,17.9c0.6,1.6,1,3.2,1.2,4.9c0.4,3.6-1.6,6.1-5.2,6.6s-6.9-0.3-10.1-1.4
	c-2.7-0.9-5.3-2.1-8.1-3.2c-0.2,0.3-0.4,0.7-0.6,1.2c-2.4,4.2-5.1,8.1-8.2,11.7c-6.4,7.8-10.5,16.9-13.2,26.7
	c-1.1,3.8-1.8,7.6-2.7,11.4c0,0.1,0,0.3,0,0.4c10.3,1.9,26.9-1.8,31.4-23.7l12.2,3.2c-2.6,10.4-7.3,19.3-16.2,25.4s-18.7,7-29,6
	c-0.2,1.6-0.3,3.1-0.4,4.6c-0.4,3.3-0.9,6.7-1,10c-0.1,4.4-4.3,9.5-9,10.7c-0.6,0.2-1.2,0.2-1.8,0.1c-1.2,0-2.1-1-2.1-2.2
	c0-0.4,0.1-0.7,0.3-1c0.6-1,1.3-1.8,2.1-2.7c0.9-1.1,1.9-2.3,2.8-3.4c0.2-0.3,0.3-0.6,0.3-0.9c-0.4-0.1-0.7-0.2-1.1-0.3
	c-0.9,0.1-1.8,0-2.8,0c-2.3-0.5-3-2.2-1.7-4.2c0.6-1,1.4-1.9,2.2-2.7c1.7-1.5,2.8-3.7,2.9-6c0.1-1.1,0.2-2.2,0.2-3.3
	c-0.1-0.3-0.3-0.6-0.6-0.8c-11.7-4.3-18.7-13.2-22.8-24.9c-0.5-1.4-0.9-2.9-1.4-4.4c-0.5,0.1-0.9,0.2-1.3,0.4
	c-2.8,1.4-5.7,2.7-8.3,4.4c-4.3,2.7-8.5,5.5-12.7,8.4c-0.5,0.3-0.9,0.7-1.2,1.2c-5.5,8.7-13.4,13.4-23.3,15
	c-1.6,0.3-3.2,0.4-4.8,0.6c-0.5,0.1-0.9,0.2-1.4,0.5c-4.4,2.1-8.9,4.2-13.3,6.4c-2.4,1.1-5.1,1.6-7.7,1.7
	c-9.3,0.5-18.6,0.8-27.9,1.2c-5.7,0.2-11.5,0.4-17.2,0.8c-4.6,0.3-9.1,0.8-13.6,1.5c-2.3,0.5-4.4,1.5-6.3,2.9
	c-7,4.8-14.7,7.9-22.4,11.3c-2.1,0.9-4.2,1.7-6.3,2.6c-3.8,1.6-7.8,2.2-11.8,3c-3.8,0.6-7.5,1.7-11,3.3c-4.4,2.1-8.7,1-12.1-2.7
	c-3.3-3.8-5.3-8.3-6.9-13.1c-0.7-2-1.3-4.1-1.9-6.1c-0.3-1-0.1-1.8,1.1-2.4c1.4-0.8,2.9-1.4,4.4-1.9c4.9-1.5,10-2,15.1-2.4
	c3.1-0.3,6.3-0.8,9.4-1.4c9.7-1.8,19.1-5.1,28.5-8.1c0.1-0.1,0.2-0.1,0.3-0.2c-11.4-30.4-22.9-61-34.4-91.5H102c2.6,0,2.6,0,3.5,2.5
	c8,23,16,46,23.9,69.1c1.3,3.8,2.4,7.8,3.6,11.7c0.1,0.3,0.2,0.5,0.3,0.8C140.3,244.4,148.8,223.1,156.3,201.3z M186.5,231.8
	c-3.3-1.2-6.5-2.3-9.6-3.6c-2.1-1-4.1-2.1-6.1-3.3c-0.7-0.3-1-1.1-0.8-1.8c1.4-4.7,3.7-9,6.7-12.9c1.7-2.1,1.6-2.6-0.9-3.6
	c-0.3-0.1-0.5-0.2-0.8-0.2c-2.3-0.5-4.6-1-6.8-1.5c-0.9-0.2-1.2,0-1.5,0.8c-6.8,18-13.6,36-20.5,54l-3.6,9.4
	c0.8,0.2,1.5,0.4,2.1,0.7c0.3,0.1,0.5,0.3,0.6,0.6c0.3,1.6,1.1,3,2.4,4c3.2,2.7,6.8,2.8,10.6,2.2c3.6-0.6,7-1.7,10.3-3.3
	c4.3-1.9,8.6-3.9,12.9-5.7c1.6-0.6,3.2-1.1,4.9-1.5L186.5,231.8z M238.3,197.4c1.8,2,3.6,3.6,5,5.5c4.6,5.7,6.2,12.6,6.7,19.8
	c0.4,4.9,0.3,9.7-0.2,14.6c-0.5,5.6-2,11-4.4,16c-2.6,5.5-7.3,9.5-13,11.2c-3.5,1-7.1,1.5-10.7,1.5c-6.3,0.1-12.6,0-18.8,0.1
	c-1.2,0-2.4-0.2-3.4,0.7c-0.2,0.1-0.5,0.2-0.7,0.1c-1.4-0.1-2.8-0.1-4.2-0.4c-2.6-0.4-5.2-0.8-7.8-0.2v10.7c0.1,0,0.3,0.1,0.4,0.1
	c11.5,0,23,0,34.5,0c1.6,0.1,3.2-0.1,4.7-0.7c9.4-4.7,18.6-9.9,27.6-15.6c0.8-0.5,1.4-1.2,1.9-2c2-3.6,3.5-7.4,4.5-11.4
	c2.1-8.1,2.7-16.5,1.9-24.9c-0.4-5.6-1.6-11.2-3.6-16.4c-2-5.6-5.3-10.6-9.6-14.6c-0.3-0.3-0.9-0.5-1.2-0.4
	C244.7,193.3,241.4,195.4,238.3,197.4L238.3,197.4z M346.1,191.6l0.1-0.2c-0.2-0.2-0.4-0.5-0.7-0.7c-3.2-3.1-6.9-5.5-11-7.1
	c-9.3-3.5-18.7-3.6-28.1-0.9c-8.2,2.3-15.3,6.7-20.6,13.7c-6.7,8.8-9.4,19-9.7,29.9c0,4.2,0.2,8.4,0.6,12.6c0.2,2.6,0.9,5.1,1.4,7.6
	l7.1-1.5c0.1,0,0.3-0.1,0.3-0.2c0.5-1.8,2.1-2.7,3.4-3.7c0.2-0.3,0.3-0.6,0.2-0.9c-0.2-2.5-0.5-5-0.7-7.5
	c-0.5-7.1,0.4-14.3,2.5-21.1c2.6-8.4,7.6-14.5,15.5-17.9c4.8-1.9,10-2.7,15.1-2.2c4.4,0.2,8.6,1.6,12.2,4.1l1,0.7
	c-0.3-1.1-0.6-2.1-0.8-3.2c-0.2-1.1,0.5-1.7,1.4-2.2c0.7-0.4,1.5-0.3,2.1,0.3c0.7,0.6,1.5,1.1,2.4,1.4c1.7,0.6,3.4-0.2,5.2-0.6
	c0.1,0,0.1-0.5,0.2-0.7L346.1,191.6z M237.9,197.5c-1.7-0.9-3.5-1.6-5.2-2.3c-3.6-1-7.2-1.5-10.9-1.5c-7.3-0.1-14.6,0-21.9-0.1
	c-0.3,0-0.6,0-0.9,0.1v17.8c0.2,0,0.4,0,0.6,0c3-0.3,6-0.8,9-1c5.6-0.3,11.1-0.4,16.7-0.6c2.5-0.1,5.1-0.2,7.5-1.2
	c2.4-1,3.2-2.6,2.6-5.1c-0.5-1.7,0-3.6,1.3-4.8C237,198.5,237.3,198.1,237.9,197.5L237.9,197.5z M232.2,243.4
	c-1.4-0.1-2.6-0.7-3.7-1.6c-1-0.6-2-1-3.1-1.3c-0.8-0.2-1.6-0.1-2.4-0.3c-6.3-1.2-12.6-2.5-19-3.7c-1.7-0.4-3.4-0.8-5.2-1.3v31.1
	c0.7-0.3,1.4-0.7,2-1c0.8-0.5,1.4-1.2,2.2-1.8c1.4-0.8,2.8-1.7,4.2-2.7c3-2.7,5.9-5.5,8.9-8.3c1.5-1.5,3.1-2.7,5-3.6
	c2.8-1.3,5.5-2.7,8.2-4C230.2,244.5,231.2,243.9,232.2,243.4L232.2,243.4z M310.8,162.6v0.3l5.2-0.8c0.9-0.1,0.9-0.7,0.6-1.4
	c-0.2-0.6-0.6-1.1-0.9-1.5c-2.2-2.5-4.3-5.1-6.7-7.4c-3.8-3.9-8.2-7.2-13-9.8c-2-1.1-4.3-1.7-6.6-1.6c-3,0.2-4.8,2-4.8,5.1
	c0,4.4,1.7,8.3,4.2,11.8c0.2,0.2,0.5,0.4,0.8,0.3c1.3-0.1,2.6-0.3,3.9-0.5c2.8-0.3,5.5-0.3,8,1.3c1.5,1,3.2,1.7,4.6,2.8
	C307.4,162.4,309.1,162.9,310.8,162.6L310.8,162.6z M198.6,234.9v-23c-3.7,0.6-7.4,1.8-11.2,0.4c0.3-0.5,0.6-0.8,0.9-1.2
	c1.1-1.3,2.4-2.5,3.4-3.8c1.4-1.8,2.7-3.6,3.9-5.6c1.1-1.9,0.5-3.2-1.4-4.3l-5.8-3.2l-1.6-0.9c0,0.1-0.1,0.1-0.1,0.2
	c0,12.4,0,24.9,0,37.3c0.1,0.4,0.3,0.7,0.7,0.8c2.4,0.8,4.7,1.5,7.1,2.2C195.8,234.1,197.2,234.5,198.6,234.9L198.6,234.9z
	 M306.7,230.4c-0.9,0.5-1.6,1-2.3,1.5c-3,2.4-6.3,4.5-9.7,6.2c-1.6,0.7-3,1.7-4.5,2.5c-0.6,0.3-0.9,0.6-0.6,1.3
	c0.3,0.7,0.3,1.6,0.5,2.4c1.3,5.7,3.4,10.9,7.5,15.2c1.1,1.2,2.3,2.2,3.6,3.4c0-0.5,0-0.7,0.1-0.9l2.1-15.6c0.2-2.5,0.8-4.9,1.8-7.1
	c0.8-1.6,1.4-3.4,2-5.1C307.7,233,307.5,231.5,306.7,230.4L306.7,230.4z M166.8,182.5c-1.2,0-1.9,0-2.7,0c-0.5-0.1-1,0.2-1.1,0.7
	c-2,5.7-4.1,11.3-6.1,17c-0.3,0.7-0.2,1,0.5,1.3c2.8,1.2,5.7,2.1,8.6,2.7c1,0.2,1.3-0.1,1.6-1c1.9-5.2,3.9-10.5,5.9-15.7
	c0.7-1.8,0.7-1.8-0.9-2.7c-0.4-0.2-0.8-0.5-1.1-0.7C170.1,182.8,168.4,182.1,166.8,182.5z M343.8,211.4c-3.4-8.3-5.2-11.4-7.1-12.8
	c0,0.1,0,0.2,0.1,0.3c1.8,2.5,3,5.4,3.4,8.5c0.2,1.1,0.3,2.3,0.1,3.4c-0.3,0.9,0.1,1.8,0.9,2.3c3,2,6.3,3.5,9.8,4.4
	c1.8,0.5,3.7,0.6,5.5,0.2c1.7-0.5,2.6-1.7,2.3-3.3c-0.5-3.1-2-5.7-3.7-8.3c0.2,0.7,0.4,1.5,0.6,2.3L343.8,211.4z M311.8,278.6
	c0.5-3.8,1-7.2,1.5-10.7c-4.1-0.7-8-2.2-11.6-4.6c0.5,4.3,0.9,8.5,1.4,12.7c0.1,0.2,0.2,0.4,0.4,0.5
	C306.3,277.3,309,277.9,311.8,278.6L311.8,278.6z M142.6,269.1L126,274c0.4,1,0.6,1.8,1,2.6c0.2,0.3,0.5,0.5,0.9,0.5
	c3.7,0,7.4,0,11,0c0.4,0,0.7-0.2,0.9-0.5C140.6,274.3,141.5,271.9,142.6,269.1L142.6,269.1z"/>
<path d="M148.3,383.9c0.9,0.3,1.8,0.6,2.7,1c0.2,0.1,0.4,0.7,0.3,1.1c-0.3,3.1-0.6,6.2-0.9,9.3c-0.4,3.4-0.7,6.8-1.1,10.3l11.2-17.3
	l3.1,1.1c-0.7,6.9-1.4,13.7-2,20.5c0.1-0.1,0.2-0.2,0.3-0.4c3.4-5.4,6.9-10.8,10.3-16.2c0.3-0.5,0.6-0.7,1.2-0.5s1.4,0.5,2.3,0.8
	l-4.1,6.1c-3.1,4.6-6.3,9.3-9.4,13.9c-0.4,0.6-0.8,0.8-1.5,0.5c-0.7-0.3-1.4-0.5-2.2-0.8c0.7-6.8,1.3-13.6,2-20.3
	c-1.4,2.2-2.9,4.5-4.4,6.9c-2.1,3.1-4.2,6.3-6.2,9.4c-0.2,0.5-0.8,0.7-1.3,0.5c0,0-0.1,0-0.1,0c-2.3-0.8-2.3-0.8-2.1-3.3
	c0.6-7.1,1.2-14.3,1.7-21.4L148.3,383.9z"/>
<path d="M205.7,31.4c0.2,6.7,0.3,13.3,0.5,20.1h-3c-0.1-8.1-0.3-16.1-0.4-24.4c1.1,0,2.1,0,3,0c0.3,0,0.6,0.3,0.7,0.6
	c3.8,6.1,7.5,12.2,11.3,18.4c0.1,0.1,0.1,0.2,0.3,0.3c-0.2-6.5-0.3-13-0.5-19.5h3c0.1,8.1,0.3,16.1,0.4,24.4c-1,0-1.9,0.1-2.9,0
	c-0.3,0-0.5-0.4-0.7-0.7c-3.9-6.3-7.7-12.7-11.6-19C205.8,31.5,205.8,31.4,205.7,31.4z"/>
<path d="M361.1,94.9l-17,16.9c-0.6-0.7-1.3-1.3-1.8-2c-0.2-0.3-0.3-0.7-0.2-1c1.8-7.2,3.7-14.5,5.6-21.7c0-0.1,0-0.2,0-0.3l-13.8,14
	l-2.1-2.1l17.1-17c0.7,0.8,1.5,1.4,2.1,2.2c0.1,0.4,0.1,0.8,0,1.2c-1.8,7.1-3.6,14.2-5.4,21.3c-2.7,10.7,0,0.1,0,0.1l13.4-14
	L361.1,94.9z"/>
<path d="M81.8,359l13.4-13.2l2,2.3L80,364.6c-0.1,0-0.2-0.1-0.3-0.1c-1.8-1.3-1.9-2.9-1.3-5c1.9-6.5,3.6-13.2,5.3-19.5l-13.9,13.5
	l-2-2.2l17.3-16.6c0.7,0.8,1.4,1.5,2.1,2.3c0.1,0.3,0.1,0.7,0,1C85.4,345.1,83.6,352.3,81.8,359z"/>
<path d="M274.5,398.3l7.5,3.9c0.5-2.6,0-4.9-0.4-7.4l2.6-1.1c0.8,3.2,0.9,6.5,0.2,9.7l5,2.4c-2,1.4-4,1.9-6,0.1
	c-0.3,0.5-0.5,0.8-0.7,1.1c-1.6,2.7-4.3,4.5-7.3,4.8c-2.4,0.4-4.7-0.7-6-2.8c-1.6-2.2-1.7-5.2-0.5-7.6c0.4-0.8,0.9-1.4,1.3-2.2
	c-0.8-0.6-1.6-1.3-2.3-2c-1.7-1.8-2.2-4.5-1.3-6.8c1-2.3,3.3-3.7,5.8-3.6c2.8,0.1,4.9,2.6,4.8,5.4c0,0.6-0.1,1.1-0.3,1.6
	C276.1,395.4,275.3,396.9,274.5,398.3z M272.2,400.3c-1.3,2-1.9,4-0.8,6.2c0.8,1.8,2.6,2.8,4.5,2.5c2.5-0.3,4.1-1.8,5.2-4.2
	L272.2,400.3z M272.5,397.2c0.7-1.3,1.3-2.6,1.9-4c0.3-1.4-0.3-2.8-1.4-3.6c-0.9-0.6-2.1-0.5-3,0.2c-1,0.8-1.4,2.3-1,3.6
	C269.5,395.1,270.7,396.2,272.5,397.2L272.5,397.2z"/>
<path d="M128.5,48.3c4.3-2.5,8.3-5.1,13.5-4.9c2,0.1,3.8,0.8,5.3,2.2c3.9,3.7,5.5,8.2,4.5,13.6c-0.4,1.8-1.2,3.4-2.5,4.7
	c-2.3,2.6-7.8,5.6-11.3,6.2C134.8,62.9,131.7,55.7,128.5,48.3z M139.9,66.7c2.3-0.7,4.5-1.9,6.4-3.4c1.8-1.5,2.8-3.8,2.7-6.2
	c0-3.2-1.2-6.3-3.4-8.5c-1-1-2.2-1.7-3.5-2.1c-3.6-1-6.7,0.8-9.7,2.7C134.8,55,137.3,60.8,139.9,66.7z"/>
<path d="M290.8,378.9c2.2-2,4.7-3.7,7.4-4.8c2.2-0.8,4.5-1,6.4,0.8c1.8,1.6,2.3,4.3,1.2,6.5c-0.2,0.4-0.4,0.9-0.7,1.4l1.2-0.1
	c2.2-0.4,4.5,0.7,5.7,2.7c1.4,2,1.6,4.7,0.3,6.8c-0.5,0.9-1.1,1.6-1.8,2.3c-2.3,2.1-4.9,3.7-7.8,5
	C298.8,392.6,294.8,385.8,290.8,378.9z M299.7,388l4.6,7.9c2-1,3.8-2,5-3.8c1-1.4,1-3.2,0.1-4.6c-0.8-1.5-2.3-2.3-4-2.1
	C303.2,385.5,301.5,386.8,299.7,388L299.7,388z M294.4,378.9l4,6.9c0.9-0.5,1.9-1.1,2.7-1.8c0.8-0.6,1.5-1.4,2-2.2
	c0.8-1.3,0.6-3-0.4-4.2c-0.8-1.2-2.4-1.7-3.7-1.1C297.5,377.2,296,378.1,294.4,378.9L294.4,378.9z"/>
<path d="M80,100.4c1.3-0.4,2.6-0.6,4-0.7c3.4,0.3,6,3.3,5.8,6.9c0,0.6-0.2,1.2-0.4,1.8c-0.9,2.8-2.9,5-4.8,7.1
	c-0.6,0.6-1.1,1.3-1.7,2L65,101.5c1.9-3,3.8-6.1,7-7.9c1.9-1.3,4.4-1.1,6.1,0.4c1.9,1.5,2.3,3.6,1.9,5.9C80,100.1,80,100.3,80,100.4
	z M76.1,107.2l7,6.3c1.1-1.4,2.1-2.8,3-4.3c1.1-1.8,0.7-4.1-0.9-5.4c-1.4-1.5-3.7-1.6-5.3-0.3C78.6,104.6,77.4,105.9,76.1,107.2z
	 M68.6,100.4l5.9,5.3c1.3-1.6,2.8-2.9,3.3-4.9c0.4-1.6-0.1-3.2-1.4-4.1c-1.2-1-2.9-1-4,0C71,97.8,69.7,99.1,68.6,100.4z"/>
<path d="M355.3,337c1.5-1.1,3.3-1.5,5-1.2c3.4,0.8,5.6,4.2,4.8,7.8c0,0.2-0.1,0.4-0.2,0.6c-0.9,3.2-3,5.6-5.1,8.1l-1,1.2l-18.4-14.8
	c1.7-3,3.4-6,6.2-8c3.4-2.5,7.8-0.9,8.6,3.1C355.3,334.8,355.4,335.9,355.3,337z M359.2,349.4c1-1.5,1.9-3,2.8-4.5
	c1-1.8,0.4-4.1-1.2-5.2c-1.5-1.4-3.7-1.4-5.2,0c-1.3,1.2-2.6,2.6-3.7,3.9l6.8,5.5C358.8,349.2,359,349.3,359.2,349.4z M350.2,342.3
	c1-1.6,1.9-3.2,2.7-4.9c0.6-1.6,0-3.4-1.5-4.2c-1.3-1-3.1-0.9-4.2,0.3c-1,1.1-2,2.2-2.8,3.5c-0.1,0.3-0.1,0.5,0.1,0.8
	C346.3,339.2,348.1,340.6,350.2,342.3z"/>
<path d="M340.4,353.7c1.6-0.2,3.2-0.7,4.6-0.4c3.7,0.6,5.9,4.8,4.6,8.5c-0.9,2.5-2.5,4.4-4.2,6.2c-0.9,0.9-1.8,1.8-2.8,2.7
	l-17.1-16.4c1.9-2.9,3.9-5.6,6.8-7.4c2.1-1.5,4.9-1.2,6.7,0.5c1.5,1.4,2.1,3.5,1.5,5.5c-0.1,0.3-0.1,0.5-0.1,0.8
	C340.5,353.9,340.5,354,340.4,353.7z M343.3,367c1.2-1.4,2.2-2.9,3.2-4.4c1.1-1.7,0.7-4-0.8-5.2c-1.3-1.5-3.5-1.7-5.1-0.6
	c-1.5,1.1-2.9,2.3-4.2,3.6L343.3,367z M334.8,358.9c1.3-1.6,2.9-2.8,3.4-4.9c0.4-1.5-0.1-3.1-1.3-4c-1.1-1-2.7-1.1-3.9-0.3
	c-1.5,1-2.8,2.3-3.8,3.9L334.8,358.9z"/>
<path d="M373.6,160.2l-1-3l22.3-7.9c0.9,2.3,1.8,4.4,2.5,6.7c0.4,1.4,0.6,2.9,0.5,4.4c-0.1,2.3-1.5,4.3-3.6,5
	c-2.1,1-4.6,0.7-6.3-0.8c-0.4-0.3-0.8-0.7-1.3-1.2c-0.4,3.2-2.8,4.4-4.9,5.8c-1.4,0.9-2.7,1.9-4.1,2.9c-0.3-0.8-0.6-1.7-0.9-2.6
	c0-0.4,0.1-0.7,0.4-0.9c0.9-0.7,1.9-1.4,2.9-2c0.8-0.6,1.6-1,2.4-1.6c1.9-1.5,2.4-3,1.7-5.4c-0.3-0.9-0.6-1.8-0.9-2.7L373.6,160.2z
	 M385.5,156c0.4,1.1,0.6,2.1,1,3.1c0.3,0.9,0.8,1.7,1.4,2.4c1.2,1.5,3.2,1.9,4.9,1c1.7-0.7,2.7-2.4,2.4-4.3
	c-0.2-1.8-0.8-3.6-1.7-5.1L385.5,156z"/>
<path d="M248.4,30.4c-0.3,0.8-0.6,1.5-1,2.4c-2-1.2-4.3-1.8-6.6-1.8c-4.5-0.2-8.4,3.3-8.9,7.9c-0.4,3-0.2,5.8,1.6,8.2
	c1.8,2.4,4.6,3.3,7.6,3.4c2.6,0.1,2.6,0.1,3-2.5c0.2-1.6,0.4-3.2,0.6-4.8l-4.7-0.6c0.1-0.8,0.2-1.6,0.2-2.6l7.8,1
	c-0.3,2.3-0.5,4.4-0.8,6.6c-0.2,1.4-0.3,2.9-0.6,4.3c-0.1,0.4-0.3,0.7-0.7,0.8c-3.3,0.8-6.8,0.6-10-0.4c-5-1.7-8-6.5-7.5-12.1
	c0.1-2.3,0.8-4.5,1.9-6.4c2.8-4.4,7-5.9,11.9-5.4C245.2,28.7,247.1,29.5,248.4,30.4z"/>
<path d="M238.4,420.5c-1.5-7.9-3-15.7-4.4-23.6c2.4-1,4.9-1.6,7.5-1.9c1.1-0.1,2.2-0.1,3.3,0.1c2.4,0.4,4.3,2.3,4.6,4.8
	c0.6,2.4-0.3,5-2.2,6.5l-0.9,0.7c2.6,0.7,3.6,2.8,4.6,5c0.8,1.8,1.6,3.6,2.5,5.5c-0.8,0.2-1.6,0.4-2.5,0.5c-0.4,0-0.7-0.2-0.9-0.6
	c-0.8-1.5-1.4-3.1-2.2-4.6c-0.3-0.6-0.5-1.2-0.9-1.8c-0.8-1.6-2.6-2.5-4.4-2.1c-1,0.2-2,0.4-3,0.6c0.6,3.5,1.3,6.9,1.9,10.3
	L238.4,420.5z M239,407.3c1.8-0.5,3.5-1,5.2-1.7c1.6-0.7,2.5-2.5,2.2-4.2c-0.3-2.2-1.4-3.5-3.2-3.8c-2-0.3-4,0-5.9,0.9
	C237.9,401.4,238.4,404.2,239,407.3L239,407.3z"/>
<path d="M43.2,135.6l1.6-2.8c3.3,2,6.6,4,9.9,5.9c1.8,1.1,3.7,2,5.6,2.8c2.2,0.8,4.7-0.2,5.8-2.3c1.4-2.1,1.1-4.9-0.7-6.6
	c-0.9-0.9-1.8-1.7-2.9-2.4c-3.7-2.3-7.4-4.4-11.1-6.6c-0.4-0.2-0.7-0.4-1.1-0.7l1.6-2.9c4.6,2.8,9.2,5.6,13.8,8.4
	c0.5,0.3,0.9,0.7,1.3,1.2c2.2,2.3,3.2,5,2.3,8.2c-0.9,3.1-2.7,6-6.1,6.9c-1.7,0.4-3.4,0.3-5-0.4c-1.4-0.6-2.7-1.2-4-2
	C50.6,140.1,47,137.9,43.2,135.6z"/>
<path d="M308,367.9l2.4-2c2,2.6,4,5.1,6,7.6c1.4,1.8,2.8,3.6,4.3,5.2c1.4,1.5,3.1,2.5,5.3,2c2.8-0.5,4.7-3.3,4.1-6.2
	c-0.1-0.3-0.1-0.7-0.3-1c-0.9-1.9-2.1-3.8-3.4-5.4c-2.4-3.2-4.9-6.2-7.4-9.4l2.4-2l2.9,3.8c1.9,2.4,3.8,4.9,5.7,7.3
	c1.5,1.7,2.5,3.8,2.9,6c0.3,1.5,0.1,3-0.6,4.4c-1.3,2.9-3.9,5-7,5.6c-2.1,0.4-4.3-0.2-5.9-1.7c-1-0.8-1.9-1.7-2.7-2.7
	c-2.9-3.6-5.7-7.2-8.5-10.8C308.2,368.3,308.1,368.2,308,367.9z"/>
<path d="M190.4,420.7c-0.1,0-0.2,0-0.3,0c-0.9-0.2-2.1-0.1-2.7-0.7s-0.4-1.8-0.5-2.7c-0.2-1.4-0.4-2.8-0.5-4.2c0-0.6-0.4-1.1-1-1.1
	c0,0,0,0,0,0c-2.2-0.4-4.4-0.8-6.6-1.3c-0.4-0.2-0.9,0.1-1.1,0.5c0,0,0,0,0,0c-1,1.9-2.1,3.8-3.1,5.7c-0.3,0.5-0.5,0.7-1,0.5
	c-0.8-0.2-1.6-0.3-2.5-0.5c2.2-4,4.3-7.8,6.5-11.7c1.8-3.3,3.7-6.6,5.5-9.9c0.2-0.5,0.7-0.8,1.2-0.6c2.8,0.5,2.8,0.5,3.2,3.4
	c1,7.4,2,14.8,3,22.1C190.4,420.4,190.4,420.6,190.4,420.7z M184.5,398.1c-1.8,3.4-3.6,6.7-5.4,10.1l6.8,1.4
	C185.4,405.7,185,401.9,184.5,398.1z"/>
<path d="M214.6,421.8c-0.3-8.1-0.6-16.2-0.9-24.4l12.7-0.5l0.2,2.7l-9.6,0.4v7.4h9.3v2.5l-8.8,0.4v8.7l10.3-0.3v2.7L214.6,421.8z"/>
<path d="M375.3,132.2c1.4,2.9,2.8,5.6,4.1,8.4l-2.3,1.2c-1.4-2.8-2.8-5.6-4.2-8.4l-7.5,3.9c1.6,3.2,3.1,6.2,4.6,9.4l-2.3,1.3
	l-6-12.3l21-11.1c2,3.9,3.9,7.8,5.8,11.8l-2.3,1.2c-1.5-3-2.9-5.9-4.4-8.9L375.3,132.2z"/>
<path d="M331.7,79.8l-1.6,2.1l-7.2-5.8l-5.2,6.8l8,6.5l-1.6,2.2l-10.5-8.5l14.6-19.2l10.1,8.1l-1.6,2.1L329,68l-4.5,6L331.7,79.8z"
	/>
<path d="M105.3,386.4l12.9-20.4l10.7,7.2l-1.4,2.3l-8.1-5.4l-4,6.4l7.7,5.2c-0.5,0.7-0.9,1.4-1.4,2.2l-7.7-5.1l-4.6,7.3l8.6,5.7
	l-1.4,2.3L105.3,386.4z"/>
<path d="M61.8,343.2l-7.5-11.4l19.6-13.6L81,329l-2.2,1.5l-5.4-8.3l-6.1,4.2l5.1,7.8l-2.1,1.5c-1.7-2.6-3.4-5.2-5.1-7.8l-7,4.9
	l5.7,8.7L61.8,343.2z"/>
<path d="M386,303.2l2.4,1.1l-5.4,12.5l-21.6-9.9c1.7-4,3.4-8,5.2-12.1l2.4,1.1c-1.3,3.1-2.6,6-3.9,9.1l6.7,3.1
	c1.3-2.9,2.5-5.7,3.8-8.6l2.3,1.1l-3.7,8.6l7.7,3.6C383.2,309.5,384.6,306.4,386,303.2z"/>
<path d="M162.5,34.2c1-0.2,1.9-0.5,2.8-0.7c0.3,0,0.6,0.2,0.8,0.4c3.3,5.7,6.5,11.5,9.7,17.2l0.6,1c0.2-2.9,0.4-5.6,0.7-8.3
	c0.4-4.3,0.9-8.5,1.3-12.8c0.1-0.4,0.4-0.7,0.7-0.8c0.9-0.3,1.7-0.5,2.6-0.6c-0.2,1.4-0.3,2.7-0.4,4c-0.8,6.8-1.6,13.6-2.3,20.4
	c0,0.8-0.6,1.6-1.4,1.6c0,0,0,0,0,0c-2.1,0.4-2.1,0.5-3.1-1.4l-11.2-19.1C162.9,34.9,162.7,34.6,162.5,34.2z"/>
<path d="M35.9,152l7.8,6.5c3.7,3,7.4,6.1,11.1,9.1c0.5,0.3,0.7,0.9,0.5,1.5c-0.9,2.4-0.8,2.4-3.3,2.4c-7-0.1-14-0.2-21-0.3
	c-0.4,0-0.9-0.1-1.5-0.1l1.1-3.2l21,0.7c-2.3-1.8-4.7-3.6-7.1-5.5c-3-2.4-6-4.8-9-7.2c-0.5-0.2-0.7-0.9-0.4-1.3c0,0,0,0,0-0.1
	C35.4,153.6,35.6,152.8,35.9,152z"/>
<path d="M53,281.5c0.3-1.9,0-3.9-0.8-5.7c-1.1-2.3-3.2-3-5.2-1.8c-1,0.6-1.6,1.7-1.7,2.8c-0.3,1.9-0.3,3.8-0.6,5.6
	c-0.5,3.2-2.3,5.1-5.1,5.7c-2.7,0.7-5.6-0.6-7-3.1c-1.7-2.7-2.4-6-2-9.3l2.6-0.2c-0.1,1.3-0.1,2.5,0,3.8c0.2,1.2,0.6,2.4,1.1,3.6
	c0.7,1.5,2.2,2.4,3.8,2.1c1.7-0.1,3.2-1.5,3.4-3.2c0.3-1.4,0.3-3,0.5-4.4c0.1-1,0.3-2,0.6-2.9c1-3.2,4.4-5,7.5-3.9
	c0.8,0.3,1.6,0.8,2.3,1.4c2.5,2.4,3.3,5.4,3.1,8.8c-0.1,0.3-0.3,0.6-0.7,0.7C54.4,281.5,53.7,281.5,53,281.5z"/>
<path d="M374.4,275.9l2.2,1.7c-1.4,1.4-2.3,3.2-2.7,5.2c-0.4,1.6,0.3,3.2,1.6,4.1c1.3,0.9,3.1,0.6,4.2-0.5c0.9-0.7,1.5-1.6,2.3-2.5
	c0.8-0.9,1.6-1.7,2.4-2.5c1.9-1.7,4.7-2,6.9-0.7c2.2,1.1,3.6,3.4,3.6,6c0,3.2-1.1,6.3-3.2,8.7c-0.2,0.2-0.5,0.5-0.7,0.7l-2.1-1.5
	c0.8-1,1.6-2.1,2.2-3.3c0.6-1.3,1-2.8,1.1-4.2c0-2.1-1.7-3.8-3.8-3.8c-0.7,0-1.4,0.2-2.1,0.7c-1,0.8-1.9,1.7-2.8,2.7
	c-0.7,0.8-1.4,1.6-2.1,2.3c-1.7,1.8-4.3,2.2-6.5,1.2c-2.2-0.9-3.7-3.1-3.7-5.6C371.1,281.2,372.3,278.1,374.4,275.9z"/>
<path d="M307.1,75.2c0,0.1,0,0.1,0,0.2c-0.7,2.6-0.1,2.7-2.9,1.8c-2.3-0.7-4.3-1.9-6.1-3.5c-3-2.8-4.3-6.3-3.4-10.4
	c1.2-5.4,4.1-9.5,9.6-10.9c4.5-1.2,8.3,0.6,11.6,3.5c0.6,0.6,1.2,1.2,1.8,1.9l-1.9,1.9c-3.4-3.7-7.2-6.2-12.3-3.7
	c-3.7,1.8-6.4,7-5.7,11.1C298.7,72.2,302.7,74,307.1,75.2z"/>
<path d="M112.4,362.2l-2.1,1.6c-3-4.2-6.4-7.3-11.9-5.4c-3.7,1.3-7.1,6.2-7,10c0.2,5.3,3.8,7.7,8.2,9.5l-1,2.4
	c-4.1-1.6-7.6-3.9-9.5-8c-1.7-3.8-1.1-7.5,1.1-10.9c2.6-4.1,6.1-6.7,11-6.5S109.7,358.1,112.4,362.2z"/>
<path d="M65.7,305.8l-2.4,0.3c-0.8-5.1-2.4-9.7-8-10.4c-4.3-0.8-8.6,1.4-10.7,5.3c-2.6,4.7-0.2,8.7,2.7,12.4c0,0.1-0.1,0.2-0.1,0.2
	c-0.5,0.5-1.1,0.9-1.6,1.3c-0.1,0-0.2,0-0.2,0c-3.3-3.6-5.3-7.7-4.5-12.7c0.8-4.7,3.9-7.3,8-8.9c6.5-2.6,12.8,0.2,15.6,6.9
	C65.3,301.9,65.7,303.8,65.7,305.8z"/>
<path d="M210.5,397.7c-0.1,0.9-0.2,1.8-0.3,2.7l-7.2-0.6c-0.6,7.2-1.2,14.3-1.8,21.5l-3.1-0.3c0.6-7.2,1.2-14.3,1.8-21.5l-7.1-0.7
	l0.2-2.7L210.5,397.7z"/>
<path d="M368.7,108.8l-4.2-6l2.1-1.6l10.3,14.6l-2.2,1.6c-1.4-2-2.8-4-4.3-6l-17,12.7l-1.9-2.7L368.7,108.8z"/>
<path d="M372.3,329.8l5.3-8.8l2.2,1.4l-7,11.6l-20.1-12.9l1.7-2.7L372.3,329.8z"/>
<path d="M190.6,28.3l3.1-0.4c1,8.1,1.9,16.1,2.9,24.2l-3.1,0.4C192.5,44.5,191.6,36.5,190.6,28.3z"/>
<path d="M69.4,310.9l1.6,2.8l-20.5,12.2l-1.6-2.8L69.4,310.9z"/>
<path d="M153.6,37.2l2.9-1.1l7.7,23.1l-2.9,1.1C158.7,52.7,156.2,45,153.6,37.2z"/>
<path d="M396.7,231.4c-2.5,0-4.5-2.1-4.4-4.6c0,0,0,0,0,0c0-2.6,2-4.6,4.5-4.6c0,0,0,0,0.1,0c2.5,0,4.4,2.1,4.4,4.6
	C401.2,229.3,399.2,231.4,396.7,231.4C396.7,231.4,396.7,231.4,396.7,231.4z"/>
<path d="M38.8,226.8c0,2.5-1.9,4.5-4.3,4.6c0,0-0.1,0-0.1,0c-2.5,0-4.5-2-4.5-4.5c0,0,0-0.1,0-0.1c0-2.5,2-4.6,4.5-4.5c0,0,0,0,0,0
	c2.4,0,4.4,2,4.4,4.5C38.8,226.7,38.8,226.7,38.8,226.8z"/>
<path d="M130.7,396.6c-2.3,2.1-4.4,4-6.6,5.8c-0.9,0.8-1.7-0.3-2.5-0.4c1.8-2.2,3.4-4.3,5.2-6.4c0.2-0.2,0.6-0.3,0.9-0.2
	C128.6,395.7,129.5,396.1,130.7,396.6z"/>
<path d="M98.4,99.8c-1.3,0-2.3-1.1-2.3-2.4c0-1.2,0.9-2.2,2.1-2.2c0,0,0,0,0,0c1.3,0.1,2.3,1.1,2.3,2.4
	C100.5,98.8,99.6,99.8,98.4,99.8C98.4,99.8,98.4,99.8,98.4,99.8z"/>
<path d="M58.8,157.3c-1.2,0.1-2.3-0.9-2.4-2.2c0,0,0,0,0,0c-0.1-1.1,0.8-2.1,1.9-2.2c0,0,0.1,0,0.1,0c1.3-0.1,2.3,0.9,2.4,2.2
	C60.9,156.2,60,157.2,58.8,157.3C58.8,157.3,58.8,157.3,58.8,157.3z"/>
<path d="M76.4,125.6c-1.3,0-2.3-1-2.4-2.3c0-1.2,0.9-2.2,2.1-2.2c1.3,0,2.3,1,2.4,2.3C78.5,124.6,77.5,125.6,76.4,125.6z"/>
</svg>
